<svg width="21" height="21" viewBox="0 0 21 21" fill="none" xmlns="http://www.w3.org/2000/svg">
<g id="caret-up">
<path id="Vector" d="M17.192 13.7603C17.134 13.8184 17.0651 13.8645 16.9892 13.896C16.9133 13.9274 16.832 13.9436 16.7499 13.9436C16.6677 13.9436 16.5864 13.9274 16.5105 13.896C16.4346 13.8645 16.3657 13.8184 16.3077 13.7603L10.4999 7.95171L4.69205 13.7603C4.57477 13.8776 4.41571 13.9435 4.24986 13.9435C4.08401 13.9435 3.92495 13.8776 3.80767 13.7603C3.6904 13.643 3.62451 13.484 3.62451 13.3181C3.62451 13.1523 3.6904 12.9932 3.80767 12.8759L10.0577 6.62593C10.1157 6.56782 10.1846 6.52172 10.2605 6.49027C10.3364 6.45882 10.4177 6.44263 10.4999 6.44263C10.582 6.44263 10.6633 6.45882 10.7392 6.49027C10.8151 6.52172 10.884 6.56782 10.942 6.62593L17.192 12.8759C17.2502 12.934 17.2963 13.0029 17.3277 13.0788C17.3592 13.1547 17.3754 13.236 17.3754 13.3181C17.3754 13.4003 17.3592 13.4816 17.3277 13.5575C17.2963 13.6333 17.2502 13.7023 17.192 13.7603Z" fill="#AEAEB2"/>
</g>
</svg>
