<svg width="21" height="21" viewBox="0 0 21 21" fill="none" xmlns="http://www.w3.org/2000/svg">
<g id="caret-down">
<path id="Vector" d="M17.192 8.57846L10.942 14.8285C10.884 14.8866 10.8151 14.9327 10.7392 14.9641C10.6633 14.9956 10.582 15.0118 10.4999 15.0118C10.4177 15.0118 10.3364 14.9956 10.2605 14.9641C10.1846 14.9327 10.1157 14.8866 10.0577 14.8285L3.80767 8.57846C3.6904 8.46119 3.62451 8.30213 3.62451 8.13627C3.62451 7.97042 3.6904 7.81136 3.80767 7.69409C3.92495 7.57681 4.08401 7.51093 4.24986 7.51093C4.41571 7.51093 4.57477 7.57681 4.69205 7.69409L10.4999 13.5027L16.3077 7.69409C16.3657 7.63602 16.4347 7.58995 16.5105 7.55853C16.5864 7.5271 16.6677 7.51093 16.7499 7.51093C16.832 7.51093 16.9133 7.5271 16.9892 7.55853C17.065 7.58995 17.134 7.63602 17.192 7.69409C17.2501 7.75215 17.2962 7.82109 17.3276 7.89696C17.359 7.97283 17.3752 8.05415 17.3752 8.13627C17.3752 8.21839 17.359 8.29971 17.3276 8.37558C17.2962 8.45145 17.2501 8.52039 17.192 8.57846Z" fill="#AEAEB2"/>
</g>
</svg>
