<svg width="72" height="73" viewBox="0 0 72 73" fill="none" xmlns="http://www.w3.org/2000/svg">
<g clip-path="url(#clip0_4008_2375)">
<path fill-rule="evenodd" clip-rule="evenodd" d="M4.1587 4.97688C4.92632 4.53963 6.01458 4.21899 6.85992 4.1121C8.16194 3.9372 9.49312 4.12182 10.5522 4.96716L10.7368 5.11291L10.9992 4.99631L11.2615 4.87971V4.64652C11.3296 3.53882 12.2526 2.66433 13.3603 2.66433H58.63C59.7377 2.66433 60.6607 3.53882 60.719 4.64652V4.87971L60.9911 4.99631L61.2534 5.11291L61.4381 4.96716C62.4874 4.12182 63.8186 3.9372 65.1304 4.1121C65.9854 4.21899 67.0737 4.53963 67.8316 4.97688C68.2688 5.74449 68.5895 6.83275 68.6964 7.6781C68.8713 8.98012 68.6866 10.3113 67.8413 11.3704L67.6955 11.555L67.8121 11.8174L67.9287 12.0797H68.1619C69.2696 12.1477 70.1441 13.0708 70.1441 14.1785V59.4481C70.1441 60.5558 69.2696 61.4789 68.1619 61.5372H67.9287L67.8121 61.8093L67.6955 62.0716L67.8413 62.2562C68.6866 63.3056 68.8713 64.6368 68.6964 65.9485C68.5895 66.8036 68.2688 67.8919 67.8316 68.6498C67.064 69.087 65.9757 69.4076 65.1304 69.5145C63.8283 69.6894 62.4972 69.5048 61.4381 68.6595L61.2534 68.5137L60.9911 68.6303L60.7287 68.7469V68.9801C60.6607 70.0878 59.7377 70.9623 58.63 70.9623H13.37C12.2623 70.9623 11.3393 70.0878 11.281 68.9801V68.7469L11.0089 68.6303L10.7466 68.5137L10.5619 68.6595C9.51255 69.5048 8.18138 69.6894 6.86964 69.5145C6.01458 69.4076 4.92632 69.087 4.16842 68.6498C3.73117 67.8821 3.41053 66.7939 3.30364 65.9485C3.12875 64.6465 3.31336 63.3153 4.1587 62.2562L4.30445 62.0716L4.18785 61.8093L4.07126 61.5469H3.83806C2.73036 61.4789 1.85587 60.5558 1.85587 59.4481V14.1882C1.85587 13.0805 2.73036 12.1574 3.83806 12.0991H4.07126L4.18785 11.8271L4.30445 11.5647L4.1587 11.3801C3.31336 10.3307 3.12875 8.99955 3.30364 7.68781C3.42024 6.83275 3.73117 5.74449 4.16842 4.9866L4.1587 4.97688ZM0 9.52425V36.8182V64.1121C0 66.5801 0.563563 68.8344 1.8753 70.9429C3.97409 72.2449 6.23806 72.8182 8.70607 72.8182H35.9806H63.2551C65.7231 72.8182 67.9773 72.2546 70.0858 70.9429L69.5514 70.4085C69.5514 70.4085 69.5709 70.3987 69.5806 70.389L70.1344 70.9429C71.4364 68.8441 72.0097 66.5801 72.0097 64.1121V9.52425C72.0097 7.05623 71.4462 4.80198 70.1344 2.69348L69.5806 3.24733C69.5806 3.24733 69.5611 3.23761 69.5514 3.22789L70.0858 2.69348C67.987 1.39146 65.7231 0.818176 63.2551 0.818176H8.70607C6.23806 0.818176 3.97409 1.38174 1.8753 2.69348C0.563563 4.79227 0 7.05623 0 9.52425Z" fill="#999999"/>
<path fill-rule="evenodd" clip-rule="evenodd" d="M4.1782 11.8174L4.2948 11.555L4.14905 11.3704C3.3037 10.321 3.11909 8.98987 3.29399 7.67813C3.41059 6.82306 3.72152 5.73481 4.15876 4.97691L3.87698 4.69513C3.26484 5.70566 1.92395 9.20363 3.84783 11.6133L3.8284 11.6619L4.1782 11.8174Z" fill="url(#paint0_linear_4008_2375)"/>
<path fill-rule="evenodd" clip-rule="evenodd" d="M3.87702 4.69513C4.88755 4.08298 8.38552 2.74209 10.7952 4.66598L10.8924 4.61739C10.9604 3.31537 12.0487 2.26598 13.3701 2.26598H58.6398C59.9612 2.26598 61.0495 3.31537 61.1175 4.61739L61.2147 4.66598C63.6244 2.74209 67.1127 4.08298 68.1329 4.69513L69.5807 3.24735C67.7248 2.09108 65.5191 1.58582 63.3135 1.58582H35.9904H35.9612H8.70617C6.5005 1.58582 4.28512 2.1008 2.43896 3.24735L3.88674 4.69513H3.87702Z" fill="url(#paint1_linear_4008_2375)"/>
<path fill-rule="evenodd" clip-rule="evenodd" d="M10.9992 4.99631L10.7369 5.11291L10.5523 4.96716C9.50286 4.12182 8.17169 3.9372 6.85995 4.1121C6.00489 4.21898 4.91663 4.53963 4.15873 4.97688L3.87695 4.6951C4.88748 4.08295 8.38546 2.74206 10.7952 4.66595L10.8438 4.64651L10.9992 4.99631Z" fill="url(#paint2_linear_4008_2375)"/>
<path fill-rule="evenodd" clip-rule="evenodd" d="M10.9992 4.99634L10.8438 4.64655L10.8923 4.62711C10.9603 3.32509 12.0486 2.2757 13.3701 2.2757H58.6397C59.9612 2.2757 61.0494 3.32509 61.1174 4.62711L61.166 4.64655L61.0106 4.99634L60.7482 4.87974V4.64655C60.6802 3.53885 59.7571 2.66436 58.6494 2.66436H13.3701C12.2624 2.66436 11.3393 3.53885 11.281 4.64655V4.87974L11.0089 4.99634H10.9992Z" fill="url(#paint3_linear_4008_2375)"/>
<path fill-rule="evenodd" clip-rule="evenodd" d="M3.87689 68.9412C3.26474 67.9307 1.92385 64.4327 3.84774 62.023L3.79916 61.9259C2.49713 61.8578 1.44774 60.7696 1.44774 59.4481V14.1882C1.44774 12.8667 2.49713 11.7785 3.79916 11.7105L3.84774 11.6133C1.92385 9.20359 3.26474 5.71533 3.87689 4.69509L2.42912 3.24731C1.27284 5.10318 0.767578 7.30885 0.767578 9.51452V64.1121C0.767578 66.3178 1.28256 68.5331 2.42912 70.3793L3.87689 68.9315V68.9412Z" fill="url(#paint4_linear_4008_2375)"/>
<path fill-rule="evenodd" clip-rule="evenodd" d="M4.1782 61.819L4.2948 62.0813L4.14905 62.2659C3.3037 63.3153 3.11909 64.6465 3.29399 65.9582C3.41059 66.8133 3.72152 67.9016 4.15876 68.6595L3.87698 68.9412C3.26484 67.9307 1.92395 64.4327 3.84783 62.023L3.8284 61.9744L4.1782 61.819Z" fill="url(#paint5_linear_4008_2375)"/>
<path fill-rule="evenodd" clip-rule="evenodd" d="M4.17817 61.819L3.82837 61.9745L3.80894 61.9259C2.50691 61.8579 1.45752 60.7696 1.45752 59.4482V14.1882C1.45752 12.8668 2.50691 11.7785 3.80894 11.7105L3.82837 11.6619L4.17817 11.8174L4.06157 12.0797H3.82837C2.72068 12.1478 1.84618 13.0708 1.84618 14.1785V59.4482C1.84618 60.5559 2.72068 61.4789 3.82837 61.5372H4.06157L4.17817 61.8093V61.819Z" fill="url(#paint6_linear_4008_2375)"/>
<path fill-rule="evenodd" clip-rule="evenodd" d="M3.87702 68.9413C4.88755 69.5534 8.38552 70.8943 10.7952 68.9704L10.8924 69.019C10.9604 70.321 12.0487 71.3704 13.3701 71.3704H58.6398C59.9612 71.3704 61.0495 70.321 61.1175 69.019L61.2147 68.9704C63.6244 70.8943 67.1127 69.5534 68.1329 68.9413L69.5807 70.3891C67.7248 71.5453 65.5191 72.0506 63.3135 72.0506H35.9904H35.8738H8.70617C6.5005 72.0506 4.28512 71.5356 2.43896 70.3891L3.88674 68.9413H3.87702Z" fill="url(#paint7_linear_4008_2375)"/>
<path fill-rule="evenodd" clip-rule="evenodd" d="M10.9992 68.64L10.7369 68.5234L10.5523 68.6692C9.50286 69.5145 8.17169 69.6991 6.85995 69.5242C6.00489 69.4174 4.91663 69.0967 4.15873 68.6595L3.87695 68.9413C4.88748 69.5534 8.38546 70.8943 10.7952 68.9704L10.8438 68.9898L10.9992 68.64Z" fill="url(#paint8_linear_4008_2375)"/>
<path fill-rule="evenodd" clip-rule="evenodd" d="M10.9992 68.64L10.8438 68.9898L10.8923 69.0092C10.9603 70.3113 12.0486 71.3607 13.3701 71.3607H58.6397C59.9612 71.3607 61.0494 70.3113 61.1174 69.0092L61.166 68.9898L61.0106 68.64L60.7482 68.7566V68.9898C60.6802 70.0975 59.7571 70.972 58.6494 70.972H13.3701C12.2624 70.972 11.3393 70.0975 11.281 68.9898V68.7566L11.0089 68.64H10.9992Z" fill="url(#paint9_linear_4008_2375)"/>
<path fill-rule="evenodd" clip-rule="evenodd" d="M2.42933 3.24733C4.2852 2.09105 6.53946 1.58579 8.74512 1.58579H36.0196H63.2941C65.4998 1.58579 67.7152 2.10077 69.5613 3.24733L70.1152 2.69348C68.0164 1.39146 65.7524 0.818176 63.2844 0.818176H8.75484C6.27711 0.818176 3.97427 1.38174 1.87549 2.69348L2.42933 3.24733Z" fill="url(#paint10_linear_4008_2375)"/>
<path fill-rule="evenodd" clip-rule="evenodd" d="M0.767611 9.52424C0.767611 7.31857 1.28259 5.10319 2.42915 3.25703L1.8753 2.70319C0.563563 4.79225 0 7.05622 0 9.52424V36.8182V64.1121C0 66.5801 0.563563 68.8344 1.8753 70.9429L2.42915 70.389C1.27287 68.5331 0.767611 66.3275 0.767611 64.1218V9.52424Z" fill="url(#paint11_linear_4008_2375)"/>
<path fill-rule="evenodd" clip-rule="evenodd" d="M35.9808 72.0506H8.70631C6.50064 72.0506 4.28525 71.5356 2.4391 70.389L1.88525 70.9429C3.98404 72.2449 6.24801 72.8182 8.71602 72.8182H35.9905H63.265C65.733 72.8182 68.0359 72.2546 70.1444 70.9429L69.5905 70.389C67.7346 71.5453 65.4804 72.0506 63.2747 72.0506H36.0002H35.9808Z" fill="url(#paint12_linear_4008_2375)"/>
<path fill-rule="evenodd" clip-rule="evenodd" d="M2.56528 3.38339C4.392 2.27569 6.53937 1.77043 8.69645 1.76071L32.4924 1.58582H8.70617C6.5005 1.58582 4.28512 2.1008 2.43896 3.24735L2.575 3.38339H2.56528Z" fill="url(#paint13_linear_4008_2375)"/>
<path fill-rule="evenodd" clip-rule="evenodd" d="M2.56528 70.253C4.392 71.3607 6.53937 71.8659 8.69645 71.8757L32.4924 72.0506H8.70617C6.5005 72.0506 4.28512 71.5356 2.43896 70.389L2.575 70.253H2.56528Z" fill="url(#paint14_linear_4008_2375)"/>
<path opacity="0.5" fill-rule="evenodd" clip-rule="evenodd" d="M2.56515 3.38333C1.45746 5.21006 0.952194 7.36714 0.942477 9.51451L0.767578 34.389V9.52423C0.767578 7.31856 1.28256 5.10317 2.42912 3.25702L2.56515 3.39305V3.38333Z" fill="url(#paint15_linear_4008_2375)"/>
<path fill-rule="evenodd" clip-rule="evenodd" d="M2.56515 70.253C1.45746 68.4263 0.952194 66.2692 0.942477 64.1218L0.767578 39.2473V64.1218C0.767578 66.3275 1.28256 68.5429 2.42912 70.389L2.56515 70.253Z" fill="url(#paint16_linear_4008_2375)"/>
<path fill-rule="evenodd" clip-rule="evenodd" d="M67.8217 11.8174L67.7051 11.555L67.8508 11.3704C68.6962 10.321 68.8808 8.98987 68.7059 7.67813C68.599 6.82306 68.2784 5.73481 67.8411 4.97691L68.1229 4.69513C68.735 5.70566 70.0759 9.20363 68.152 11.6133L68.1715 11.6619L67.8217 11.8174Z" fill="url(#paint17_linear_4008_2375)"/>
<path fill-rule="evenodd" clip-rule="evenodd" d="M61.001 4.99631L61.2633 5.11291L61.4479 4.96716C62.4973 4.12182 63.8285 3.9372 65.1403 4.1121C65.9953 4.21898 67.0836 4.53963 67.8415 4.97688L68.1232 4.6951C67.1127 4.08295 63.6147 2.74206 61.205 4.66595L61.1564 4.64651L61.001 4.99631Z" fill="url(#paint18_linear_4008_2375)"/>
<path fill-rule="evenodd" clip-rule="evenodd" d="M68.123 68.9412C68.7352 67.9307 70.0761 64.4327 68.1522 62.023L68.2008 61.9259C69.5028 61.8578 70.5522 60.7696 70.5522 59.4481V14.1882C70.5522 12.8667 69.5028 11.7785 68.2008 11.7105L68.1522 11.6133C70.0761 9.20359 68.7352 5.71533 68.123 4.69509L69.5708 3.24731C70.7271 5.10318 71.2324 7.30885 71.2324 9.51452V64.1121C71.2324 66.3178 70.7174 68.5331 69.5708 70.3793L68.123 68.9315V68.9412Z" fill="url(#paint19_linear_4008_2375)"/>
<path fill-rule="evenodd" clip-rule="evenodd" d="M67.8217 61.819L67.7051 62.0813L67.8508 62.2659C68.6962 63.3153 68.8808 64.6465 68.7059 65.9582C68.599 66.8133 68.2784 67.9016 67.8411 68.6595L68.1229 68.9412C68.735 67.9307 70.0759 64.4327 68.152 62.023L68.1715 61.9744L67.8217 61.819Z" fill="url(#paint20_linear_4008_2375)"/>
<path fill-rule="evenodd" clip-rule="evenodd" d="M67.8218 61.819L68.1716 61.9745L68.191 61.9259C69.493 61.8579 70.5424 60.7696 70.5424 59.4482V14.1882C70.5424 12.8668 69.493 11.7785 68.191 11.7105L68.1716 11.6619L67.8218 11.8174L67.9384 12.0797H68.1716C69.2793 12.1478 70.1538 13.0708 70.1538 14.1785V59.4482C70.1538 60.5559 69.2793 61.4789 68.1716 61.5372H67.9384L67.8218 61.8093V61.819Z" fill="url(#paint21_linear_4008_2375)"/>
<path fill-rule="evenodd" clip-rule="evenodd" d="M61.001 68.64L61.2633 68.5234L61.4479 68.6692C62.4973 69.5145 63.8285 69.6991 65.1403 69.5242C65.9953 69.4174 67.0836 69.0967 67.8415 68.6595L68.1232 68.9413C67.1127 69.5534 63.6147 70.8943 61.205 68.9704L61.1564 68.9898L61.001 68.64Z" fill="url(#paint22_linear_4008_2375)"/>
<path fill-rule="evenodd" clip-rule="evenodd" d="M71.2323 64.1121C71.2323 66.3178 70.7174 68.5331 69.5708 70.3793L70.1246 70.9332C71.4267 68.8344 72 66.5704 72 64.1024V9.52425C72 7.05623 71.4364 4.80198 70.1246 2.69348L69.5708 3.24733C70.7271 5.1032 71.2323 7.30887 71.2323 9.51453V64.1121Z" fill="url(#paint23_linear_4008_2375)"/>
<path fill-rule="evenodd" clip-rule="evenodd" d="M69.4349 3.38339C67.6082 2.27569 65.4609 1.77043 63.3038 1.76071L39.5078 1.58582H63.3038C65.5094 1.58582 67.7248 2.1008 69.571 3.24735L69.4349 3.38339Z" fill="url(#paint24_linear_4008_2375)"/>
<path fill-rule="evenodd" clip-rule="evenodd" d="M69.4349 70.253C67.6082 71.3607 65.4609 71.8659 63.3038 71.8757L39.5078 72.0506H63.3038C65.5094 72.0506 67.7248 71.5356 69.571 70.389L69.4349 70.253Z" fill="url(#paint25_linear_4008_2375)"/>
<path opacity="0.5" fill-rule="evenodd" clip-rule="evenodd" d="M69.4351 3.38333C70.5428 5.21006 71.048 7.36714 71.0577 9.51451L71.2326 34.389V9.52423C71.2326 7.31856 70.7176 5.10317 69.5711 3.25702L69.4351 3.39305V3.38333Z" fill="url(#paint26_linear_4008_2375)"/>
<path fill-rule="evenodd" clip-rule="evenodd" d="M69.4351 70.253C70.5428 68.4263 71.048 66.2692 71.0577 64.1218L71.2326 39.2473V64.1218C71.2326 66.3275 70.7176 68.5429 69.5711 70.389L69.4351 70.253Z" fill="url(#paint27_linear_4008_2375)"/>
<path fill-rule="evenodd" clip-rule="evenodd" d="M35.9808 1.33313C46.5525 1.33313 56.1622 1.4303 63.3039 1.58576H8.65771C15.7994 1.4303 25.4091 1.33313 35.9808 1.33313Z" fill="#E6E6E6"/>
<path fill-rule="evenodd" clip-rule="evenodd" d="M36.0001 71.1372C44.7547 71.1372 52.7223 71.2247 58.63 71.3607H13.3701C19.2875 71.2149 27.2454 71.1372 36.0001 71.1372Z" fill="#E6E6E6"/>
</g>
<defs>
<linearGradient id="paint0_linear_4008_2375" x1="3.57577" y1="11.8174" x2="3.57577" y2="4.69513" gradientUnits="userSpaceOnUse">
<stop stop-color="#CF7B23"/>
<stop offset="1" stop-color="#7A4000"/>
</linearGradient>
<linearGradient id="paint1_linear_4008_2375" x1="36.0001" y1="4.69513" x2="36.0001" y2="1.58582" gradientUnits="userSpaceOnUse">
<stop stop-color="#F5AD24"/>
<stop offset="1" stop-color="#FFE56B"/>
</linearGradient>
<linearGradient id="paint2_linear_4008_2375" x1="3.87695" y1="4.39388" x2="10.9992" y2="4.39388" gradientUnits="userSpaceOnUse">
<stop stop-color="#CF7B23"/>
<stop offset="1" stop-color="#7A4000"/>
</linearGradient>
<linearGradient id="paint3_linear_4008_2375" x1="36" y1="4.99634" x2="36" y2="2.2757" gradientUnits="userSpaceOnUse">
<stop stop-color="#FFB566"/>
<stop offset="1" stop-color="#6E4500"/>
</linearGradient>
<linearGradient id="paint4_linear_4008_2375" x1="0.767578" y1="36.8182" x2="3.87689" y2="36.8182" gradientUnits="userSpaceOnUse">
<stop stop-color="#A36700"/>
<stop offset="1" stop-color="#E8A55D"/>
</linearGradient>
<linearGradient id="paint5_linear_4008_2375" x1="2.84702" y1="65.385" x2="4.2948" y2="65.385" gradientUnits="userSpaceOnUse">
<stop stop-color="#FFBE45"/>
<stop offset="1" stop-color="#FFF0AB"/>
</linearGradient>
<linearGradient id="paint6_linear_4008_2375" x1="1.45752" y1="36.8182" x2="4.17817" y2="36.8182" gradientUnits="userSpaceOnUse">
<stop stop-color="#784C00"/>
<stop offset="1" stop-color="#AB671C"/>
</linearGradient>
<linearGradient id="paint7_linear_4008_2375" x1="36.0001" y1="72.0506" x2="36.0001" y2="68.9413" gradientUnits="userSpaceOnUse">
<stop stop-color="#6E4500"/>
<stop offset="1" stop-color="#CF9353"/>
</linearGradient>
<linearGradient id="paint8_linear_4008_2375" x1="7.44294" y1="69.9712" x2="7.44294" y2="68.5234" gradientUnits="userSpaceOnUse">
<stop stop-color="#FFE56B"/>
<stop offset="1" stop-color="#F5AD24"/>
</linearGradient>
<linearGradient id="paint9_linear_4008_2375" x1="36" y1="71.3607" x2="36" y2="68.64" gradientUnits="userSpaceOnUse">
<stop stop-color="#FFF0AB"/>
<stop offset="1" stop-color="#FFBE45"/>
</linearGradient>
<linearGradient id="paint10_linear_4008_2375" x1="36.0002" y1="3.24733" x2="36.0002" y2="0.818176" gradientUnits="userSpaceOnUse">
<stop stop-color="#FFC640"/>
<stop offset="1" stop-color="#FFFAE3"/>
</linearGradient>
<linearGradient id="paint11_linear_4008_2375" x1="1.21458" y1="70.9429" x2="1.21458" y2="2.69347" gradientUnits="userSpaceOnUse">
<stop stop-color="#6E4500"/>
<stop offset="1" stop-color="#CF9353"/>
</linearGradient>
<linearGradient id="paint12_linear_4008_2375" x1="36.0002" y1="72.8182" x2="36.0002" y2="70.389" gradientUnits="userSpaceOnUse">
<stop stop-color="#472D00"/>
<stop offset="1" stop-color="#784814"/>
</linearGradient>
<linearGradient id="paint13_linear_4008_2375" x1="2.42925" y1="2.48946" x2="32.5021" y2="2.48946" gradientUnits="userSpaceOnUse">
<stop stop-color="#6E4500"/>
<stop offset="1" stop-color="#CF9353"/>
</linearGradient>
<linearGradient id="paint14_linear_4008_2375" x1="2.42925" y1="71.1566" x2="32.5021" y2="71.1566" gradientUnits="userSpaceOnUse">
<stop stop-color="#FFCA4F"/>
<stop offset="1" stop-color="#B37500"/>
</linearGradient>
<linearGradient id="paint15_linear_4008_2375" x1="1.67122" y1="34.3987" x2="1.67122" y2="3.2473" gradientUnits="userSpaceOnUse">
<stop stop-color="#CF9353"/>
<stop offset="1" stop-color="#6E4500"/>
</linearGradient>
<linearGradient id="paint16_linear_4008_2375" x1="-3.34001e-05" y1="70.389" x2="0.971626" y2="39.2376" gradientUnits="userSpaceOnUse">
<stop stop-color="#CF9353"/>
<stop offset="1" stop-color="#6E4500"/>
</linearGradient>
<linearGradient id="paint17_linear_4008_2375" x1="68.4241" y1="0.818206" x2="68.4241" y2="0.818206" gradientUnits="userSpaceOnUse">
<stop stop-color="#CF7B23"/>
<stop offset="1" stop-color="#7A4000"/>
</linearGradient>
<linearGradient id="paint18_linear_4008_2375" x1="61.001" y1="4.39388" x2="68.1232" y2="4.39388" gradientUnits="userSpaceOnUse">
<stop stop-color="#7A4000"/>
<stop offset="1" stop-color="#CF7B23"/>
</linearGradient>
<linearGradient id="paint19_linear_4008_2375" x1="68.123" y1="36.8182" x2="71.2324" y2="36.8182" gradientUnits="userSpaceOnUse">
<stop stop-color="#E8A55D"/>
<stop offset="1" stop-color="#A36700"/>
</linearGradient>
<linearGradient id="paint20_linear_4008_2375" x1="67.7051" y1="65.385" x2="69.1529" y2="65.385" gradientUnits="userSpaceOnUse">
<stop stop-color="#FFF0AB"/>
<stop offset="1" stop-color="#FFBE45"/>
</linearGradient>
<linearGradient id="paint21_linear_4008_2375" x1="67.8218" y1="36.8182" x2="70.5424" y2="36.8182" gradientUnits="userSpaceOnUse">
<stop stop-color="#F5B41E"/>
<stop offset="1" stop-color="#D18900"/>
</linearGradient>
<linearGradient id="paint22_linear_4008_2375" x1="64.567" y1="0.818195" x2="64.567" y2="0.818195" gradientUnits="userSpaceOnUse">
<stop stop-color="#FFE56B"/>
<stop offset="1" stop-color="#F5AD24"/>
</linearGradient>
<linearGradient id="paint23_linear_4008_2375" x1="70.7854" y1="70.9429" x2="70.7854" y2="2.69348" gradientUnits="userSpaceOnUse">
<stop stop-color="#6E4500"/>
<stop offset="1" stop-color="#CF9353"/>
</linearGradient>
<linearGradient id="paint24_linear_4008_2375" x1="39.4981" y1="2.48946" x2="69.571" y2="2.48946" gradientUnits="userSpaceOnUse">
<stop stop-color="#CF9353"/>
<stop offset="1" stop-color="#6E4500"/>
</linearGradient>
<linearGradient id="paint25_linear_4008_2375" x1="39.4981" y1="71.1566" x2="69.571" y2="71.1566" gradientUnits="userSpaceOnUse">
<stop stop-color="#B37500"/>
<stop offset="1" stop-color="#FFCA4F"/>
</linearGradient>
<linearGradient id="paint26_linear_4008_2375" x1="70.3387" y1="0.818153" x2="70.3387" y2="0.818153" gradientUnits="userSpaceOnUse">
<stop stop-color="#CF9353"/>
<stop offset="1" stop-color="#6E4500"/>
</linearGradient>
<linearGradient id="paint27_linear_4008_2375" x1="70.3387" y1="70.389" x2="70.3387" y2="39.2376" gradientUnits="userSpaceOnUse">
<stop stop-color="#CF9353"/>
<stop offset="1" stop-color="#6E4500"/>
</linearGradient>
<clipPath id="clip0_4008_2375">
<rect width="72" height="72" fill="white" transform="translate(0 0.818176)"/>
</clipPath>
</defs>
</svg>
