<svg width="73" height="28" viewBox="0 0 73 28" fill="none" xmlns="http://www.w3.org/2000/svg">
<g id="Group">
<g id="Layer 2">
<g id="Group_2">
<g id="Group_3">
<path id="Vector" d="M60.1512 0H12.6368L0.5 6.95615V20.8686L12.6485 27.8182H60.1395L72.288 20.8686V6.95615L60.1512 0Z" fill="url(#paint0_linear_4449_242)"/>
<g id="Group_4" style="mix-blend-mode:overlay" opacity="0.51">
<path id="Vector_2" d="M59.9934 24.8572H12.7948L3.21582 19.3671V8.06742L12.7948 2.57715L59.9934 2.57724L69.5722 8.06742V19.3671L59.9934 24.8572ZM13.352 22.7926H59.4362L67.4925 18.1751V9.25934L59.4362 4.64177L13.352 4.64186L5.29556 9.25934V18.175L13.352 22.7926Z" fill="white"/>
</g>
<g id="Group_5" style="mix-blend-mode:multiply" opacity="0.51">
<path id="Vector_3" d="M59.9934 2.57196H59.9603V4.93687L67.4925 9.25406V18.1698L59.4362 22.7873H13.352L7.36527 19.356H3.21582V19.3618L12.7948 24.8519H59.9934L69.5722 19.3618V8.06214L59.9934 2.57196Z" fill="black"/>
</g>
<path id="Vector_4" d="M59.7149 3.80139L59.7148 3.80141H13.0735L13.0735 3.80139L4.25586 8.85523V18.9629L13.0735 24.0168L13.0735 24.0168H59.7148L59.7149 24.0168L68.5325 18.9629V8.85523L59.7149 3.80139Z" fill="url(#paint1_linear_4449_242)"/>
<g id="Vector_5" style="mix-blend-mode:multiply" opacity="0.5">
<path d="M4.91543 9.21919L13.7331 4.16535L13.7331 4.16537H60.3744L60.3745 4.16535L68.5325 8.84115V8.64356L59.7149 3.58972H59.7148H13.0735L4.25586 8.64356V18.7513L4.91543 19.1293V9.21919Z" fill="#002F9C"/>
</g>
<g id="Vector_6" style="mix-blend-mode:overlay" opacity="0.51">
<path d="M0.5 6.95615L3.21574 8.0674L12.7947 2.57712L12.6368 0L0.5 6.95615Z" fill="white"/>
</g>
<g id="Vector_7" style="mix-blend-mode:multiply" opacity="0.5">
<path d="M12.6484 27.8182L12.7947 24.8519H59.9933L60.1395 27.8182H12.6484Z" fill="black"/>
</g>
<g id="Vector_8" style="mix-blend-mode:multiply" opacity="0.12">
<path d="M72.2879 20.8686L60.1394 27.8182L59.9932 24.8519L69.572 19.3618L72.2879 20.8686Z" fill="black"/>
</g>
<path id="Vector_9" d="M72.288 6.95615L69.2905 7.69136L60.176 2.35691L60.1512 0L59.7427 2.22788H13.0642L12.6368 0L12.5154 2.3139L3.06989 7.7498L0.5 6.95615L3.21574 8.29269V8.0674L12.9775 2.57712L59.9933 2.57197L69.0522 8.08097V18.8887L59.4734 24.3788H12.2748L3.48614 19.3416H3.21574V19.3475L12.7947 24.8376H59.9933L69.5721 19.3475V8.30287L72.288 6.95615Z" fill="white"/>
</g>
<g id="Group_6">
<g id="Group_7">
<path id="Vector_10" d="M20.031 14.1576C20.031 15.5321 19.5861 16.7241 18.696 17.7339C17.9095 18.6362 16.8053 19.1107 15.3831 19.1574C15.11 19.1666 14.359 19.1713 13.1299 19.1713C12.899 19.1713 12.5518 19.1644 12.088 19.1503C11.6241 19.1364 11.2768 19.1293 11.0461 19.1293C10.9095 19.1293 10.8413 19.0756 10.8413 18.968C10.8413 18.4539 10.8613 17.6813 10.9012 16.6505C10.9412 15.6196 10.9613 14.8472 10.9613 14.3329C10.9613 13.7954 10.9412 12.9901 10.9012 11.9171C10.8613 10.8443 10.8413 10.0414 10.8413 9.50841C10.8413 9.41028 10.9095 9.3518 11.0461 9.33316C11.3804 9.29569 11.9291 9.27704 12.6919 9.27704C14.1424 9.27704 15.0817 9.29805 15.5104 9.34005C16.6264 9.45229 17.4999 9.73289 18.1309 10.1817C18.7243 10.6024 19.1928 11.1915 19.5367 11.9487C19.8662 12.664 20.031 13.4002 20.031 14.1576ZM17.3258 14.1576C17.3258 13.3676 17.0878 12.7224 16.6122 12.2222C16.1319 11.7032 15.4962 11.4438 14.7051 11.4438C13.9799 11.4438 13.6173 11.5398 13.6173 11.7313C13.6173 12.0072 13.6126 12.422 13.6031 12.976C13.5936 13.5299 13.5891 13.9449 13.5891 14.2207C13.5891 14.4918 13.5936 14.8998 13.6031 15.4443C13.6126 15.9891 13.6173 16.3992 13.6173 16.6751C13.6173 16.876 13.9939 16.9765 14.7474 16.9765C15.5622 16.9765 16.2026 16.7078 16.6687 16.1702C17.1068 15.6606 17.3258 14.9897 17.3258 14.1576Z" fill="url(#paint2_linear_4449_242)"/>
<path id="Vector_11" d="M28.3591 16.9485C28.3591 17.1496 28.319 17.5189 28.2389 18.0564C28.1542 18.6409 28.0788 18.9891 28.013 19.1013C27.9565 19.19 27.8788 19.2345 27.7798 19.2345C27.7375 19.2345 27.6669 19.2275 27.5679 19.2135C27.2241 19.1667 26.2212 19.1433 24.5588 19.1433C24.1961 19.1433 23.657 19.1409 22.9413 19.1364C22.2254 19.1317 21.6885 19.1293 21.3307 19.1293C21.1753 19.1293 21.0977 19.0616 21.0977 18.926C21.0977 18.4025 21.1269 17.6158 21.1858 16.5664C21.2447 15.517 21.2742 14.7303 21.2742 14.2067C21.2742 13.6738 21.2459 12.6805 21.1894 11.2264C21.1753 10.8526 21.1494 10.2938 21.1117 9.55059L21.1046 9.45231C21.0951 9.34478 21.1542 9.29102 21.2813 9.29102C21.6298 9.29102 22.1536 9.30042 22.8529 9.31907C23.5523 9.33789 24.0761 9.34713 24.4246 9.34713C24.7683 9.34713 25.2864 9.33789 25.9786 9.31907C26.6709 9.30042 27.1888 9.29102 27.5327 9.29102C27.7774 9.29102 27.9187 9.38225 27.9565 9.56455C27.98 9.67208 28.0164 9.9982 28.066 10.5428C28.1154 11.0875 28.1401 11.4181 28.1401 11.5351C28.1401 11.6332 28.0929 11.6823 27.9988 11.6823C27.9705 11.6823 27.9211 11.6799 27.8505 11.6752C26.5977 11.5725 25.4724 11.521 24.474 11.521C24.2244 11.521 24.0714 11.5794 24.0148 11.6964C23.9913 11.7523 23.9796 11.9324 23.9796 12.2362C23.9796 12.5543 24.0267 12.7646 24.1208 12.8673C24.2008 12.9562 24.354 13.0005 24.58 13.0005C24.627 13.0005 24.7189 12.997 24.8555 12.9901C24.9921 12.9831 25.105 12.9795 25.1945 12.9795C25.7879 12.9795 26.3882 12.9632 26.9958 12.9305C27.0476 12.9259 27.1769 12.9142 27.3842 12.8954C27.5444 12.8767 27.6715 12.8673 27.7657 12.8673C27.8788 12.8673 27.9353 12.9212 27.9353 13.0286C27.9353 12.9305 27.8928 13.288 27.808 14.1016C27.7703 14.4756 27.7515 14.8496 27.7515 15.2234C27.7515 15.317 27.6833 15.3637 27.5467 15.3637L26.911 15.2937C26.6426 15.2656 26.0304 15.2515 25.0745 15.2515H24.3257C24.1326 15.2515 24.0196 15.2983 23.9866 15.3918C23.9818 15.4153 23.9796 15.5601 23.9796 15.8266C23.9796 16.1818 24.0032 16.411 24.0502 16.5138C24.1303 16.6914 24.4317 16.7966 24.9543 16.8293C24.9448 16.8293 25.2886 16.8293 25.9857 16.8293C26.2352 16.8293 26.606 16.8072 27.0982 16.7626C27.5902 16.7183 27.9587 16.6961 28.2036 16.6961C28.3072 16.6961 28.3591 16.7803 28.3591 16.9485Z" fill="url(#paint3_linear_4449_242)"/>
<path id="Vector_12" d="M36.5954 11.5771C36.5954 11.6286 36.5483 11.6542 36.4542 11.6542C36.101 11.6542 35.5652 11.6238 34.8472 11.5631C34.1289 11.5023 33.5909 11.4719 33.2331 11.4719C32.781 11.4719 32.5173 11.4883 32.442 11.5209C32.2677 11.6006 32.1807 11.8249 32.1807 12.1942C32.1807 12.6383 32.2936 12.8908 32.5197 12.9515C32.6138 12.975 32.7575 12.9866 32.9506 12.9866C33.2756 12.9866 33.7617 12.9689 34.4092 12.934C35.0566 12.8989 35.543 12.8814 35.868 12.8814C36.0233 12.8814 36.101 13.2927 36.101 14.1155C36.101 14.8307 36.0751 15.2469 36.0233 15.3637C35.9903 15.4479 35.9267 15.4899 35.8326 15.4899C35.8937 15.4899 35.7454 15.4736 35.3876 15.4408C34.8836 15.3941 34.1208 15.3708 33.0989 15.3708C32.7692 15.3708 32.5833 15.3731 32.5409 15.3778C32.3007 15.4153 32.1807 15.5158 32.1807 15.6792C32.1807 16.3431 32.209 17.1076 32.2653 17.9724C32.3124 18.7531 32.3361 19.1013 32.3361 19.0171C32.3361 19.1386 32.1876 19.2088 31.8911 19.2275C31.971 19.2228 31.7615 19.2206 31.2624 19.2206C30.3818 19.2206 29.8143 19.19 29.5601 19.1293C29.4235 19.0967 29.3552 19.0242 29.3552 18.9119C29.3552 18.3931 29.3729 17.6136 29.4082 16.5733C29.4434 15.5332 29.4612 14.7536 29.4612 14.2348C29.4612 13.6177 29.4329 12.8417 29.3764 11.9067C29.2916 10.4621 29.2468 9.68617 29.2422 9.57847L29.2351 9.49446C29.2303 9.37753 29.3009 9.31905 29.447 9.31905C29.7955 9.31905 30.3217 9.32612 31.0258 9.34006C31.7297 9.35417 32.2584 9.36123 32.6116 9.36123C32.9882 9.36123 33.5545 9.33317 34.3104 9.27704C35.0662 9.22092 35.6324 9.19287 36.0091 9.19287C36.2446 9.19287 36.3764 9.2888 36.4047 9.48035C36.4047 9.68147 36.4141 9.98289 36.4329 10.385C36.4424 10.4878 36.4729 10.6866 36.5248 10.9811C36.5719 11.2382 36.5954 11.4368 36.5954 11.5771Z" fill="url(#paint4_linear_4449_242)"/>
<path id="Vector_13" d="M44.6624 16.9485C44.6624 17.1496 44.6222 17.5189 44.5422 18.0564C44.4574 18.6409 44.3821 18.9891 44.3162 19.1013C44.2597 19.19 44.182 19.2345 44.083 19.2345C44.0407 19.2345 43.9701 19.2275 43.8711 19.2135C43.5274 19.1667 42.5244 19.1433 40.862 19.1433C40.4993 19.1433 39.9603 19.1409 39.2445 19.1364C38.5286 19.1317 37.9917 19.1293 37.6339 19.1293C37.4786 19.1293 37.4009 19.0616 37.4009 18.926C37.4009 18.4025 37.4302 17.6158 37.4891 16.5664C37.548 15.517 37.5774 14.7303 37.5774 14.2067C37.5774 13.6738 37.5491 12.6805 37.4926 11.2264C37.4786 10.8526 37.4527 10.2938 37.4149 9.55059L37.4078 9.45231C37.3983 9.34478 37.4574 9.29102 37.5845 9.29102C37.933 9.29102 38.4568 9.30042 39.1562 9.31907C39.8555 9.33789 40.3793 9.34713 40.7278 9.34713C41.0716 9.34713 41.5896 9.33789 42.2819 9.31907C42.9741 9.30042 43.492 9.29102 43.8359 9.29102C44.0806 9.29102 44.222 9.38225 44.2597 9.56455C44.2832 9.67208 44.3196 9.9982 44.3692 10.5428C44.4186 11.0875 44.4434 11.4181 44.4434 11.5351C44.4434 11.6332 44.3961 11.6823 44.302 11.6823C44.2738 11.6823 44.2243 11.6799 44.1538 11.6752C42.901 11.5725 41.7756 11.521 40.7772 11.521C40.5276 11.521 40.3746 11.5794 40.3181 11.6964C40.2945 11.7523 40.2829 11.9324 40.2829 12.2362C40.2829 12.5543 40.3299 12.7646 40.424 12.8673C40.5041 12.9562 40.6572 13.0005 40.8832 13.0005C40.9302 13.0005 41.0221 12.997 41.1587 12.9901C41.2953 12.9831 41.4082 12.9795 41.4977 12.9795C42.0911 12.9795 42.6914 12.9632 43.299 12.9305C43.3508 12.9259 43.4801 12.9142 43.6875 12.8954C43.8476 12.8767 43.9747 12.8673 44.069 12.8673C44.182 12.8673 44.2386 12.9212 44.2386 13.0286C44.2386 12.9305 44.1961 13.288 44.1113 14.1016C44.0735 14.4756 44.0547 14.8496 44.0547 15.2234C44.0547 15.317 43.9866 15.3637 43.85 15.3637L43.2143 15.2937C42.9458 15.2656 42.3336 15.2515 41.3777 15.2515H40.629C40.4359 15.2515 40.3228 15.2983 40.2898 15.3918C40.2851 15.4153 40.2829 15.5601 40.2829 15.8266C40.2829 16.1818 40.3064 16.411 40.3534 16.5138C40.4335 16.6914 40.7349 16.7966 41.2576 16.8293C41.2481 16.8293 41.5918 16.8293 42.289 16.8293C42.5385 16.8293 42.9093 16.8072 43.4014 16.7626C43.8935 16.7183 44.2619 16.6961 44.5068 16.6961C44.6104 16.6961 44.6624 16.7803 44.6624 16.9485Z" fill="url(#paint5_linear_4449_242)"/>
<path id="Vector_14" d="M54.9187 18.9541C54.9187 19.0381 54.8597 19.0967 54.7421 19.1293C54.6007 19.1666 54.1629 19.1854 53.4282 19.1854C52.7547 19.1854 52.3216 19.1666 52.1285 19.1293C51.9684 19.0967 51.8672 18.9916 51.8247 18.8138C51.6646 18.1405 51.5399 17.7806 51.4505 17.7339C51.375 17.7012 50.744 17.6849 49.5573 17.6849C48.7567 17.6849 48.3305 17.7059 48.2788 17.7479C48.1987 17.8228 48.1093 18.0728 48.0103 18.4982C47.921 18.8864 47.8126 19.0967 47.6855 19.1293C47.5253 19.1666 46.9884 19.1854 46.075 19.1854C45.3545 19.1854 44.9941 19.1177 44.9941 18.9821C44.9941 18.8605 45.5263 17.367 46.5907 14.5013C47.7443 11.4018 48.3707 9.69777 48.4695 9.38928C48.526 9.21169 48.5919 9.1228 48.6674 9.1228C48.7945 9.1228 48.991 9.13439 49.2572 9.15775C49.5231 9.18127 49.7221 9.19286 49.854 9.19286C49.9812 9.19286 50.1684 9.1848 50.4155 9.16833C50.6628 9.15204 50.8476 9.1438 50.9702 9.1438C51.0595 9.1438 51.1419 9.22092 51.2173 9.37516C51.4479 9.86611 52.1214 11.549 53.2376 14.4241C54.3582 17.3179 54.9187 18.8277 54.9187 18.9541ZM49.9105 12.5658C49.8117 12.7715 49.6444 13.2179 49.409 13.9051C49.1548 14.6345 49.0275 15.0621 49.0275 15.1884C49.0275 15.2726 49.1688 15.3193 49.4513 15.3286C49.5974 15.3381 49.8375 15.3427 50.1718 15.3427C50.4827 15.3427 50.6545 15.3054 50.6875 15.2304C50.697 15.2071 50.7017 15.1743 50.7017 15.1323C50.7017 14.9781 50.5932 14.5527 50.3768 13.8561C50.1649 13.1828 50.0095 12.7528 49.9105 12.5658Z" fill="url(#paint6_linear_4449_242)"/>
<path id="Vector_15" d="M62.5191 11.4367C62.5191 11.5303 62.4672 11.577 62.3637 11.577C62.1847 11.577 61.476 11.5419 60.2375 11.4719C60.2092 12.6547 60.1952 13.4799 60.1952 13.9473C60.1952 14.4989 60.2175 15.3286 60.2622 16.4366C60.307 17.5446 60.3294 18.3744 60.3294 18.926C60.3294 19.0149 60.3082 19.0708 60.2657 19.0942C60.2517 19.1036 60.1857 19.1154 60.068 19.1293C59.7854 19.1666 59.3711 19.1854 58.8247 19.1854C58.2173 19.1854 57.7911 19.1666 57.5462 19.1293C57.4144 19.106 57.3485 19.0335 57.3485 18.9119C57.3485 18.3603 57.3721 17.533 57.4191 16.4296C57.4662 15.3264 57.4897 14.4989 57.4897 13.9473C57.4897 13.5825 57.4709 12.7691 57.4332 11.507C56.4913 11.6006 55.7403 11.6471 55.18 11.6471C55.1045 11.6471 55.0669 11.6237 55.0669 11.577C55.0669 11.5164 55.0997 11.3363 55.1657 11.037C55.2411 10.7099 55.2835 10.5111 55.293 10.4411C55.3071 10.2213 55.3235 10.0017 55.3424 9.78192C55.3753 9.43126 55.4318 9.25602 55.5118 9.25602C55.5213 9.25602 55.5543 9.25837 55.6109 9.26291C56.3737 9.36121 57.5014 9.41026 58.9943 9.41026C59.4181 9.41026 60.1997 9.3659 61.3394 9.27702C61.9516 9.23032 62.26 9.20679 62.2647 9.20679C62.359 9.20679 62.4132 9.21283 62.4272 9.22444C62.4414 9.23619 62.4507 9.28173 62.4555 9.36121C62.4555 9.48739 62.4507 9.66263 62.4414 9.8871C62.432 10.1349 62.4272 10.3102 62.4272 10.413C62.4272 10.5299 62.4424 10.7016 62.4732 10.9285C62.5037 11.1551 62.5191 11.3247 62.5191 11.4367Z" fill="url(#paint7_linear_4449_242)"/>
</g>
<g id="Group_8">
<path id="Vector_16" d="M11.1346 14.7365C11.1346 14.199 11.1145 13.3937 11.0745 12.3207C11.0346 11.2479 11.0146 10.4449 11.0146 9.91198C11.0146 9.81385 11.0828 9.75539 11.2194 9.73673C11.5537 9.69928 12.1024 9.68061 12.8652 9.68061C14.3157 9.68061 15.255 9.70161 15.6837 9.74362C16.7997 9.85586 17.6732 10.1365 18.3042 10.5852C18.8783 10.9922 19.3342 11.5583 19.6749 12.2803C19.6322 12.1701 19.587 12.0601 19.5367 11.9508C19.1928 11.1936 18.7243 10.6045 18.1309 10.1838C17.4999 9.73501 16.6264 9.45442 15.5104 9.34218C15.0817 9.30017 14.1424 9.27917 12.6919 9.27917C11.9291 9.27917 11.3804 9.29782 11.0461 9.33529C10.9095 9.35394 10.8413 9.41241 10.8413 9.51054C10.8413 10.0435 10.8613 10.8464 10.9012 11.9192C10.9412 12.9922 10.9613 13.7975 10.9613 14.335C10.9613 14.8493 10.9412 15.6217 10.9012 16.6527C10.8613 17.6835 10.8413 18.456 10.8413 18.9702C10.8413 19.0687 10.9014 19.1198 11.0161 19.1281C11.021 18.6246 11.0404 17.9344 11.0745 17.0541C11.1145 16.0232 11.1346 15.2508 11.1346 14.7365Z" fill="white"/>
<path id="Vector_17" d="M16.6689 16.1723C16.2028 16.71 15.5623 16.9786 14.7476 16.9786C14.287 16.9786 13.969 16.9407 13.79 16.8656C13.7905 16.9435 13.7908 17.015 13.7908 17.0787C13.7908 17.2796 14.1674 17.3801 14.9209 17.3801C15.7356 17.3801 16.3761 17.1114 16.8422 16.5738C17.2802 16.0642 17.4992 15.3933 17.4992 14.5612C17.4992 14.0289 17.3885 13.5639 17.1725 13.1631C17.2732 13.4652 17.3259 13.7964 17.3259 14.1598C17.3259 14.9918 17.1069 15.6627 16.6689 16.1723Z" fill="white"/>
<path id="Vector_18" d="M27.9331 13.016C27.9334 13.0215 27.9353 13.0253 27.9353 13.0311C27.9353 13.018 27.9345 13.0132 27.9331 13.016Z" fill="white"/>
<path id="Vector_19" d="M24.7533 13.4041C24.8004 13.4041 24.8923 13.4006 25.0289 13.3937C25.1655 13.3867 25.2784 13.3831 25.3679 13.3831C25.9613 13.3831 26.5616 13.3668 27.1692 13.3341C27.221 13.3295 27.3503 13.3178 27.5576 13.299C27.6964 13.2828 27.8088 13.274 27.8981 13.2718C27.9169 13.1104 27.9286 13.0246 27.9332 13.016C27.9276 12.9195 27.873 12.8694 27.7658 12.8694C27.6715 12.8694 27.5444 12.8789 27.3843 12.8975C27.177 12.9163 27.0477 12.9281 26.9959 12.9326C26.3883 12.9654 25.788 12.9817 25.1946 12.9817C25.105 12.9817 24.9921 12.9852 24.8556 12.9923C24.719 12.9992 24.6271 13.0027 24.58 13.0027C24.3898 13.0027 24.2543 12.9693 24.1675 12.9063C24.1877 13.0781 24.2296 13.2005 24.2942 13.2709C24.3742 13.3598 24.5274 13.4041 24.7533 13.4041Z" fill="white"/>
<path id="Vector_20" d="M25.1279 17.2329C25.1184 17.2329 25.4622 17.2329 26.1593 17.2329C26.4088 17.2329 26.7796 17.2107 27.2718 17.1662C27.7491 17.1232 28.109 17.1012 28.3538 17.0999C28.3572 17.0434 28.3594 16.9925 28.3594 16.9506C28.3594 16.7824 28.3074 16.6982 28.2038 16.6982C27.9589 16.6982 27.5905 16.7204 27.0985 16.7648C26.6063 16.8093 26.2355 16.8315 25.986 16.8315C25.2889 16.8315 24.9451 16.8315 24.9546 16.8315C24.5761 16.8077 24.3153 16.7455 24.1689 16.6458C24.1807 16.7715 24.1988 16.8628 24.2238 16.9174C24.3038 17.095 24.6053 17.2002 25.1279 17.2329Z" fill="white"/>
<path id="Vector_21" d="M21.4475 14.6103C21.4475 14.0774 21.4192 13.084 21.3627 11.63C21.3486 11.2562 21.3228 10.6973 21.285 9.9542L21.2779 9.8559C21.2684 9.74838 21.3275 9.69461 21.4546 9.69461C21.8031 9.69461 22.3269 9.70401 23.0262 9.72266C23.7256 9.74148 24.2494 9.75073 24.5979 9.75073C24.9416 9.75073 25.4597 9.74148 26.1519 9.72266C26.8442 9.70401 27.3621 9.69461 27.706 9.69461C27.8236 9.69461 27.9159 9.71689 27.9857 9.75899C27.9744 9.66926 27.9646 9.60395 27.9565 9.56669C27.9187 9.38439 27.7774 9.29315 27.5327 9.29315C27.1888 9.29315 26.6709 9.30257 25.9786 9.32122C25.2864 9.34004 24.7683 9.34927 24.4246 9.34927C24.0761 9.34927 23.5523 9.34004 22.8529 9.32122C22.1536 9.30257 21.6298 9.29315 21.2813 9.29315C21.1542 9.29315 21.0951 9.34692 21.1046 9.45446L21.1117 9.55275C21.1494 10.2959 21.1753 10.8547 21.1894 11.2286C21.2459 12.6826 21.2742 13.6759 21.2742 14.2089C21.2742 14.7324 21.2447 15.5191 21.1858 16.5685C21.1269 17.618 21.0977 18.4046 21.0977 18.9282C21.0977 19.0444 21.1582 19.1076 21.2723 19.1242C21.2787 18.6083 21.3075 17.8903 21.3591 16.97C21.418 15.9205 21.4475 15.1339 21.4475 14.6103Z" fill="white"/>
<path id="Vector_22" d="M29.6345 14.6384C29.6345 14.0212 29.6062 13.2453 29.5497 12.3103C29.4649 10.8657 29.4201 10.0897 29.4155 9.98205L29.4084 9.89805C29.4037 9.7811 29.4742 9.72263 29.6203 9.72263C29.9688 9.72263 30.495 9.72969 31.1991 9.74363C31.903 9.75774 32.4317 9.76481 32.7849 9.76481C33.1615 9.76481 33.7278 9.73674 34.4837 9.68063C35.2395 9.62452 35.8057 9.59645 36.1824 9.59645C36.2745 9.59645 36.346 9.61555 36.4064 9.64487C36.4053 9.58525 36.4047 9.53061 36.4047 9.48248C36.3764 9.29094 36.2446 9.19501 36.0091 9.19501C35.6324 9.19501 35.0662 9.22306 34.3104 9.27919C33.5545 9.3353 32.9882 9.36336 32.6116 9.36336C32.2584 9.36336 31.7297 9.3563 31.0258 9.34219C30.3217 9.32824 29.7955 9.32119 29.447 9.32119C29.3009 9.32119 29.2303 9.37966 29.2351 9.49659L29.2422 9.58061C29.2468 9.68831 29.2916 10.4642 29.3764 11.9089C29.4329 12.8439 29.4612 13.6198 29.4612 14.2369C29.4612 14.7558 29.4434 15.5354 29.4082 16.5754C29.3729 17.6158 29.3552 18.3952 29.3552 18.9141C29.3552 19.0167 29.4152 19.0845 29.5293 19.1205C29.533 18.6086 29.5503 17.8946 29.5815 16.9768C29.6167 15.9368 29.6345 15.1572 29.6345 14.6384Z" fill="white"/>
<path id="Vector_23" d="M32.6929 13.355C32.787 13.3786 32.9307 13.3902 33.1238 13.3902C33.4487 13.3902 33.9348 13.3725 34.5824 13.3376C35.2297 13.3025 35.7162 13.285 36.0411 13.285C36.0468 13.285 36.0516 13.2895 36.0571 13.2906C36.019 13.0224 35.9565 12.8835 35.8678 12.8835C35.5428 12.8835 35.0564 12.901 34.409 12.9361C33.7615 12.9711 33.2754 12.9887 32.9505 12.9887C32.7573 12.9887 32.6137 12.9771 32.5196 12.9536C32.4636 12.9386 32.4147 12.9116 32.3726 12.8731C32.4126 13.1469 32.5189 13.3084 32.6929 13.355Z" fill="white"/>
<path id="Vector_24" d="M37.7507 14.6103C37.7507 14.0774 37.7225 13.084 37.6659 11.63C37.6519 11.2562 37.626 10.6973 37.5882 9.9542L37.5811 9.8559C37.5717 9.74838 37.6307 9.69461 37.7578 9.69461C38.1063 9.69461 38.6301 9.70401 39.3295 9.72266C40.0288 9.74148 40.5526 9.75073 40.9011 9.75073C41.2449 9.75073 41.7629 9.74148 42.4552 9.72266C43.1474 9.70401 43.6653 9.69461 44.0092 9.69461C44.1268 9.69461 44.2191 9.71689 44.2889 9.75899C44.2777 9.66926 44.2679 9.60395 44.2597 9.56669C44.222 9.38439 44.0806 9.29315 43.8359 9.29315C43.492 9.29315 42.9741 9.30257 42.2819 9.32122C41.5896 9.34004 41.0716 9.34927 40.7278 9.34927C40.3793 9.34927 39.8555 9.34004 39.1562 9.32122C38.4568 9.30257 37.933 9.29315 37.5845 9.29315C37.4574 9.29315 37.3983 9.34692 37.4078 9.45446L37.4149 9.55275C37.4527 10.2959 37.4786 10.8547 37.4926 11.2286C37.5491 12.6826 37.5774 13.6759 37.5774 14.2089C37.5774 14.7324 37.548 15.5191 37.4891 16.5685C37.4302 17.618 37.4009 18.4046 37.4009 18.9282C37.4009 19.0444 37.4615 19.1076 37.5756 19.1242C37.5819 18.6083 37.6107 17.8903 37.6624 16.97C37.7213 15.9205 37.7507 15.1339 37.7507 14.6103Z" fill="white"/>
<path id="Vector_25" d="M41.4306 17.2329C41.4212 17.2329 41.7649 17.2329 42.462 17.2329C42.7115 17.2329 43.0823 17.2107 43.5745 17.1662C44.0518 17.1232 44.4117 17.1012 44.6565 17.0999C44.66 17.0434 44.6621 16.9925 44.6621 16.9506C44.6621 16.7824 44.6101 16.6982 44.5066 16.6982C44.2617 16.6982 43.8932 16.7204 43.4012 16.7648C42.909 16.8093 42.5382 16.8315 42.2887 16.8315C41.5916 16.8315 41.2479 16.8315 41.2573 16.8315C40.8788 16.8077 40.6181 16.7455 40.4717 16.6458C40.4834 16.7715 40.5015 16.8628 40.5265 16.9174C40.6066 17.095 40.908 17.2002 41.4306 17.2329Z" fill="white"/>
<path id="Vector_26" d="M41.0566 13.4041C41.1036 13.4041 41.1955 13.4006 41.3321 13.3937C41.4687 13.3867 41.5816 13.3831 41.6711 13.3831C42.2645 13.3831 42.8648 13.3668 43.4724 13.3341C43.5242 13.3295 43.6535 13.3178 43.8609 13.299C43.9996 13.2828 44.1121 13.274 44.2013 13.2718C44.2201 13.1104 44.2319 13.0246 44.2364 13.016C44.2308 12.9195 44.1762 12.8694 44.069 12.8694C43.9747 12.8694 43.8476 12.8789 43.6875 12.8975C43.4802 12.9163 43.3509 12.9281 43.2991 12.9326C42.6915 12.9654 42.0912 12.9817 41.4978 12.9817C41.4083 12.9817 41.2954 12.9852 41.1588 12.9923C41.0222 12.9992 40.9303 13.0027 40.8832 13.0027C40.693 13.0027 40.5576 12.9693 40.4707 12.9063C40.491 13.0781 40.5328 13.2005 40.5974 13.2709C40.6774 13.3598 40.8306 13.4041 41.0566 13.4041Z" fill="white"/>
<path id="Vector_27" d="M44.2363 13.016C44.2366 13.0215 44.2385 13.0253 44.2385 13.0311C44.2385 13.018 44.2378 13.0132 44.2363 13.016Z" fill="white"/>
<path id="Vector_28" d="M50.0837 12.9695C50.0828 12.9713 50.0817 12.9739 50.0808 12.9758C50.1628 13.1984 50.2609 13.4908 50.3766 13.8582C50.5931 14.5549 50.7016 14.9803 50.7016 15.1345C50.7016 15.1765 50.6968 15.2093 50.6874 15.2326C50.6544 15.3076 50.4826 15.3449 50.1717 15.3449C49.8374 15.3449 49.5972 15.3403 49.4512 15.3308C49.3761 15.3283 49.3117 15.323 49.2565 15.3152C49.2195 15.4512 49.2007 15.5439 49.2007 15.5921C49.2007 15.6763 49.342 15.723 49.6245 15.7322C49.7705 15.7418 50.0107 15.7463 50.345 15.7463C50.6559 15.7463 50.8277 15.709 50.8607 15.6341C50.8702 15.6107 50.8749 15.578 50.8749 15.536C50.8749 15.3817 50.7664 14.9563 50.5499 14.2597C50.338 13.5864 50.1827 13.1565 50.0837 12.9695Z" fill="white"/>
<path id="Vector_29" d="M51.6499 18.1616C51.7026 18.3305 51.7607 18.5471 51.8247 18.8159C51.8488 18.9168 51.894 18.9915 51.956 19.0457C51.8304 18.5422 51.7283 18.2475 51.6499 18.1616Z" fill="white"/>
<path id="Vector_30" d="M48.6428 9.79293C48.6993 9.61534 48.7652 9.52646 48.8407 9.52646C48.9678 9.52646 49.1643 9.53804 49.4305 9.5614C49.6964 9.58492 49.8954 9.59652 50.0273 9.59652C50.1546 9.59652 50.3417 9.58845 50.5888 9.57198C50.8361 9.55569 51.0209 9.54746 51.1435 9.54746C51.2328 9.54746 51.3153 9.62459 51.3906 9.77882C51.4013 9.80159 51.4139 9.82963 51.4265 9.85753C51.3371 9.6444 51.2665 9.48209 51.2173 9.37738C51.1419 9.22313 51.0595 9.14601 50.9702 9.14601C50.8476 9.14601 50.6628 9.15425 50.4155 9.17054C50.1684 9.18701 49.9812 9.19507 49.854 9.19507C49.7221 9.19507 49.5231 9.18348 49.2572 9.15996C48.991 9.1366 48.7945 9.125 48.6674 9.125C48.5919 9.125 48.526 9.21388 48.4695 9.39149C48.3707 9.69996 47.7443 11.404 46.5907 14.5034C45.5263 17.3692 44.9941 18.8627 44.9941 18.9843C44.9941 19.0483 45.0772 19.0965 45.2373 19.1303C45.412 18.5833 45.92 17.1772 46.764 14.9049C47.9176 11.8055 48.544 10.1014 48.6428 9.79293Z" fill="white"/>
<path id="Vector_31" d="M55.4663 10.8447C55.4804 10.6249 55.4968 10.4053 55.5157 10.1856C55.5486 9.83491 55.6051 9.65967 55.6852 9.65967C55.6946 9.65967 55.7276 9.66201 55.7842 9.66654C56.547 9.76485 57.6747 9.8139 59.1676 9.8139C59.5914 9.8139 60.373 9.76956 61.5127 9.68066C62.1249 9.63396 62.4333 9.61044 62.438 9.61044C62.443 9.61044 62.4466 9.61063 62.4513 9.61066C62.454 9.51444 62.4555 9.43123 62.4555 9.36339C62.4507 9.28393 62.4414 9.23839 62.4272 9.22663C62.4131 9.21503 62.359 9.20898 62.2647 9.20898C62.26 9.20898 61.9516 9.2325 61.3394 9.27922C60.1997 9.3681 59.4181 9.41246 58.9943 9.41246C57.5014 9.41246 56.3737 9.36339 55.6109 9.2651C55.5543 9.26057 55.5213 9.25821 55.5118 9.25821C55.4318 9.25821 55.3753 9.43347 55.3424 9.78412C55.3235 10.0039 55.3071 10.2235 55.293 10.4433C55.2835 10.5133 55.2411 10.7121 55.1657 11.0392C55.0997 11.3385 55.0669 11.5186 55.0669 11.5792C55.0669 11.6259 55.1045 11.6493 55.18 11.6493C55.2166 11.6493 55.2564 11.6486 55.2947 11.6481C55.3073 11.5868 55.322 11.5179 55.339 11.4407C55.4144 11.1135 55.4568 10.9148 55.4663 10.8447Z" fill="white"/>
<path id="Vector_32" d="M57.6634 14.3509C57.6634 13.9861 57.6446 13.1727 57.6068 11.9106C57.5517 11.9161 57.4994 11.9208 57.4456 11.926C57.4752 12.9517 57.4899 13.6266 57.4899 13.9494C57.4899 14.501 57.4664 15.3285 57.4193 16.4317C57.3722 17.5351 57.3486 18.3625 57.3486 18.9141C57.3486 19.0275 57.4084 19.0963 57.5231 19.1242C57.5276 18.5792 57.5508 17.8165 57.5928 16.8332C57.6399 15.73 57.6634 14.9025 57.6634 14.3509Z" fill="white"/>
</g>
</g>
<g id="Group_9">
<g id="Group_10">
<path id="Vector_33" d="M0.5 6.86536V10.5719L4.76543 9.3087L0.5 6.86536Z" fill="#9797A9"/>
<path id="Vector_34" d="M0.5 6.86571L3.73942 5.02264L4.75637 9.32459L0.5 6.86571Z" fill="url(#paint8_linear_4449_242)"/>
<path id="Vector_35" d="M0.5 6.86571L0.596954 6.81055L4.75637 9.32459L0.5 6.9746V6.86571Z" fill="white"/>
</g>
<g id="Group_11">
<path id="Vector_36" d="M72.4998 6.86536V10.5719L68.2344 9.30871L72.4998 6.86536Z" fill="#9797A9"/>
<path id="Vector_37" d="M72.5 6.86571L69.2606 5.02264L68.2437 9.32459L72.5 6.86571Z" fill="url(#paint9_linear_4449_242)"/>
<path id="Vector_38" d="M72.5 6.86571L72.403 6.81055L68.2437 9.32459L72.5 6.9746V6.86571Z" fill="white"/>
</g>
<g id="Group_12">
<path id="Vector_39" d="M72.4998 20.9528V17.2462L68.2344 18.5094L72.4998 20.9528Z" fill="url(#paint10_linear_4449_242)"/>
<path id="Vector_40" d="M72.5 20.9524L69.2606 22.7955L68.2437 18.4935L72.5 20.9524Z" fill="#9797A9"/>
<path id="Vector_41" d="M72.5 20.9524L72.403 21.0076L68.2437 18.4935L72.5 20.8435V20.9524Z" fill="white"/>
</g>
<g id="Group_13">
<path id="Vector_42" d="M0.5 20.9528V17.2462L4.76543 18.5094L0.5 20.9528Z" fill="url(#paint11_linear_4449_242)"/>
<path id="Vector_43" d="M0.5 20.9524L3.73942 22.7955L4.75637 18.4935L0.5 20.9524Z" fill="#9797A9"/>
<path id="Vector_44" d="M0.5 20.9524L0.596954 21.0076L4.75637 18.4935L0.5 20.8435V20.9524Z" fill="white"/>
</g>
</g>
</g>
</g>
</g>
<defs>
<linearGradient id="paint0_linear_4449_242" x1="38.1672" y1="27.3145" x2="31.7606" y2="-21.8182" gradientUnits="userSpaceOnUse">
<stop stop-color="#212133"/>
<stop offset="1" stop-color="#A0A0B2"/>
</linearGradient>
<linearGradient id="paint1_linear_4449_242" x1="35.6935" y1="28.2225" x2="35.6935" y2="2.72024" gradientUnits="userSpaceOnUse">
<stop offset="0.024242" stop-color="#FF7B00"/>
<stop offset="1" stop-color="#FF9306"/>
</linearGradient>
<linearGradient id="paint2_linear_4449_242" x1="15.4362" y1="-2.88562" x2="15.4362" y2="29.5373" gradientUnits="userSpaceOnUse">
<stop stop-color="#A0A0B2"/>
<stop offset="1" stop-color="#212133"/>
</linearGradient>
<linearGradient id="paint3_linear_4449_242" x1="24.7284" y1="-2.88552" x2="24.7284" y2="29.5373" gradientUnits="userSpaceOnUse">
<stop stop-color="#A0A0B2"/>
<stop offset="1" stop-color="#212133"/>
</linearGradient>
<linearGradient id="paint4_linear_4449_242" x1="32.9151" y1="-2.88555" x2="32.9151" y2="29.5373" gradientUnits="userSpaceOnUse">
<stop stop-color="#A0A0B2"/>
<stop offset="1" stop-color="#212133"/>
</linearGradient>
<linearGradient id="paint5_linear_4449_242" x1="41.0316" y1="-2.88552" x2="41.0316" y2="29.5373" gradientUnits="userSpaceOnUse">
<stop stop-color="#A0A0B2"/>
<stop offset="1" stop-color="#212133"/>
</linearGradient>
<linearGradient id="paint6_linear_4449_242" x1="49.9564" y1="-2.88555" x2="49.9564" y2="29.5373" gradientUnits="userSpaceOnUse">
<stop stop-color="#A0A0B2"/>
<stop offset="1" stop-color="#212133"/>
</linearGradient>
<linearGradient id="paint7_linear_4449_242" x1="58.793" y1="-2.88562" x2="58.793" y2="29.5373" gradientUnits="userSpaceOnUse">
<stop stop-color="#A0A0B2"/>
<stop offset="1" stop-color="#212133"/>
</linearGradient>
<linearGradient id="paint8_linear_4449_242" x1="2.67433" y1="8.0387" x2="5.27588" y2="4.80945" gradientUnits="userSpaceOnUse">
<stop offset="0.246865" stop-color="#D7D7E8"/>
<stop offset="1" stop-color="#9797A9"/>
</linearGradient>
<linearGradient id="paint9_linear_4449_242" x1="70.3257" y1="8.0387" x2="67.7241" y2="4.80944" gradientUnits="userSpaceOnUse">
<stop offset="0.246865" stop-color="#D7D7E8"/>
<stop offset="1" stop-color="#9797A9"/>
</linearGradient>
<linearGradient id="paint10_linear_4449_242" x1="68.9913" y1="16.8949" x2="73.7987" y2="20.3799" gradientUnits="userSpaceOnUse">
<stop offset="0.246865" stop-color="#D7D7E8"/>
<stop offset="1" stop-color="#9797A9"/>
</linearGradient>
<linearGradient id="paint11_linear_4449_242" x1="3.22217" y1="17.4528" x2="-1.54003" y2="20.9374" gradientUnits="userSpaceOnUse">
<stop offset="0.246865" stop-color="#D7D7E8"/>
<stop offset="1" stop-color="#9797A9"/>
</linearGradient>
</defs>
</svg>
