<svg width="20" height="20" viewBox="0 0 20 20" fill="none" xmlns="http://www.w3.org/2000/svg">
<g id="gear">
<path id="Vector" d="M9.99979 6.24998C9.25811 6.24998 8.53309 6.46991 7.9164 6.88196C7.29972 7.29402 6.81907 7.87969 6.53524 8.56491C6.25142 9.25014 6.17715 10.0041 6.32185 10.7316C6.46654 11.459 6.82369 12.1272 7.34814 12.6516C7.87259 13.1761 8.54077 13.5332 9.2682 13.6779C9.99563 13.8226 10.7496 13.7484 11.4349 13.4645C12.1201 13.1807 12.7057 12.7 13.1178 12.0834C13.5299 11.4667 13.7498 10.7417 13.7498 9.99998C13.7488 9.00573 13.3533 8.0525 12.6503 7.34947C11.9473 6.64643 10.994 6.25101 9.99979 6.24998ZM9.99979 12.5C9.50534 12.5 9.02199 12.3534 8.61087 12.0786C8.19974 11.8039 7.87931 11.4135 7.69009 10.9567C7.50087 10.4999 7.45137 9.9972 7.54783 9.51225C7.64429 9.0273 7.88239 8.58184 8.23203 8.23221C8.58166 7.88258 9.02711 7.64447 9.51207 7.54801C9.99702 7.45155 10.4997 7.50106 10.9565 7.69028C11.4133 7.8795 11.8038 8.19993 12.0785 8.61105C12.3532 9.02217 12.4998 9.50552 12.4998 9.99998C12.4998 10.663 12.2364 11.2989 11.7676 11.7677C11.2987 12.2366 10.6628 12.5 9.99979 12.5ZM16.8748 10.1687C16.8779 10.0562 16.8779 9.94373 16.8748 9.83123L18.0404 8.37498C18.1015 8.29852 18.1438 8.20877 18.1639 8.11297C18.184 8.01716 18.1813 7.91798 18.156 7.82341C17.965 7.10513 17.6791 6.41548 17.306 5.77263C17.2572 5.6885 17.1894 5.61694 17.108 5.56364C17.0266 5.51034 16.9339 5.47677 16.8373 5.4656L14.9842 5.25935C14.9071 5.1781 14.829 5.09998 14.7498 5.02498L14.531 3.16716C14.5198 3.07045 14.4861 2.97771 14.4327 2.89633C14.3792 2.81494 14.3075 2.74717 14.2232 2.69841C13.5801 2.32603 12.8905 2.04047 12.1724 1.84919C12.0778 1.82403 11.9786 1.82146 11.8828 1.84168C11.787 1.8619 11.6973 1.90435 11.6209 1.9656L10.1685 3.12497C10.056 3.12497 9.94354 3.12497 9.83104 3.12497L8.37479 1.96169C8.29833 1.90057 8.20859 1.85827 8.11278 1.83819C8.01698 1.8181 7.9178 1.8208 7.82323 1.84607C7.10507 2.0375 6.41546 2.32332 5.77245 2.69607C5.68832 2.74492 5.61676 2.81273 5.56346 2.89411C5.51015 2.97548 5.47658 3.06818 5.46542 3.16482L5.25917 5.02107C5.17792 5.09867 5.09979 5.1768 5.02479 5.25544L3.16698 5.46873C3.07027 5.47998 2.97753 5.51367 2.89614 5.56711C2.81476 5.62055 2.74699 5.69227 2.69823 5.77654C2.32584 6.41963 2.04029 7.10923 1.84901 7.82732C1.82385 7.92195 1.82128 8.02116 1.8415 8.11697C1.86172 8.21277 1.90416 8.30249 1.96542 8.37888L3.12479 9.83123C3.12479 9.94373 3.12479 10.0562 3.12479 10.1687L1.96151 11.625C1.90039 11.7014 1.85809 11.7912 1.838 11.887C1.81792 11.9828 1.82062 12.082 1.84589 12.1765C2.03697 12.8948 2.32281 13.5845 2.69589 14.2273C2.74473 14.3114 2.81255 14.383 2.89392 14.4363C2.9753 14.4896 3.068 14.5232 3.16464 14.5344L5.01776 14.7406C5.09537 14.8219 5.17349 14.9 5.25214 14.975L5.46854 16.8328C5.47979 16.9295 5.51348 17.0222 5.56692 17.1036C5.62037 17.185 5.69208 17.2528 5.77635 17.3015C6.41945 17.6739 7.10904 17.9595 7.82714 18.1508C7.92176 18.1759 8.02098 18.1785 8.11679 18.1583C8.21259 18.1381 8.30231 18.0956 8.3787 18.0344L9.83104 16.875C9.94354 16.8781 10.056 16.8781 10.1685 16.875L11.6248 18.0406C11.7013 18.1017 11.791 18.144 11.8868 18.1641C11.9826 18.1842 12.0818 18.1815 12.1764 18.1562C12.8946 17.9651 13.5843 17.6793 14.2271 17.3062C14.3113 17.2574 14.3828 17.1896 14.4361 17.1082C14.4894 17.0268 14.523 16.9341 14.5342 16.8375L14.7404 14.9844C14.8217 14.9073 14.8998 14.8291 14.9748 14.75L16.8326 14.5312C16.9293 14.52 17.0221 14.4863 17.1034 14.4328C17.1848 14.3794 17.2526 14.3077 17.3014 14.2234C17.6737 13.5803 17.9593 12.8907 18.1506 12.1726C18.1757 12.078 18.1783 11.9788 18.1581 11.883C18.1379 11.7872 18.0954 11.6975 18.0342 11.6211L16.8748 10.1687ZM15.617 9.66091C15.6303 9.88676 15.6303 10.1132 15.617 10.339C15.6077 10.4937 15.6561 10.6462 15.7529 10.7672L16.8615 12.1523C16.7343 12.5566 16.5714 12.9488 16.3748 13.3242L14.6092 13.5242C14.4554 13.5413 14.3134 13.6148 14.2107 13.7304C14.0603 13.8996 13.9002 14.0597 13.731 14.2101C13.6153 14.3128 13.5419 14.4548 13.5248 14.6086L13.3287 16.3726C12.9533 16.5694 12.5611 16.7322 12.1568 16.8594L10.7709 15.7508C10.66 15.6621 10.5222 15.6139 10.3803 15.614H10.3428C10.1169 15.6273 9.89048 15.6273 9.66464 15.614C9.51001 15.6047 9.35744 15.6532 9.23651 15.75L7.84745 16.8594C7.44318 16.7321 7.05101 16.5693 6.67557 16.3726L6.47557 14.6094C6.45851 14.4556 6.38502 14.3136 6.26932 14.2109C6.10019 14.0605 5.94002 13.9004 5.78964 13.7312C5.68693 13.6155 5.54496 13.542 5.3912 13.525L3.62714 13.3281C3.43041 12.9527 3.26753 12.5605 3.14042 12.1562L4.24901 10.7703C4.34581 10.6494 4.39426 10.4968 4.38495 10.3422C4.37167 10.1163 4.37167 9.88988 4.38495 9.66404C4.39426 9.50941 4.34581 9.35684 4.24901 9.23591L3.14042 7.84763C3.26762 7.44336 3.4305 7.05119 3.62714 6.67576L5.39042 6.47576C5.54418 6.45869 5.68615 6.3852 5.78885 6.26951C5.93924 6.10037 6.09941 5.9402 6.26854 5.78982C6.3847 5.68704 6.45849 5.54475 6.47557 5.3906L6.67167 3.62732C7.04706 3.43059 7.43924 3.26771 7.84354 3.1406L9.22948 4.24919C9.35041 4.34599 9.50298 4.39444 9.65761 4.38513C9.88345 4.37185 10.1099 4.37185 10.3357 4.38513C10.4904 4.39444 10.6429 4.34599 10.7639 4.24919L12.1521 3.1406C12.5564 3.26781 12.9486 3.43069 13.324 3.62732L13.524 5.3906C13.5411 5.54436 13.6146 5.68633 13.7303 5.78904C13.8994 5.93942 14.0596 6.09959 14.2099 6.26872C14.3127 6.38442 14.4546 6.45791 14.6084 6.47497L16.3724 6.67107C16.5692 7.04646 16.7321 7.43864 16.8592 7.84294L15.7506 9.22888C15.6528 9.35083 15.6043 9.50497 15.6146 9.66091H15.617Z" fill="#F7F7F7"/>
</g>
</svg>
