<svg width="72" height="29" viewBox="0 0 72 29" fill="none" xmlns="http://www.w3.org/2000/svg">
<g id="Group">
<g id="Layer 4">
<g id="Group_2">
<g id="Group_3">
<path id="Vector" d="M59.6539 0.818115H12.3975L0.32666 7.77427V21.6867L12.4092 28.6363H59.6423L71.7247 21.6867V7.77427L59.6539 0.818115Z" fill="url(#paint0_linear_4161_2385)"/>
<path id="Vector_2" d="M59.4965 25.6753H12.5543L3.02734 20.1852V8.88554L12.5543 3.39526L59.4965 3.39535L69.0233 8.88554V20.1852L59.4965 25.6753ZM13.1085 23.6107H58.9424L66.9549 18.9932V10.0775L58.9424 5.45989L13.1085 5.45998L5.09578 10.0775V18.9931L13.1085 23.6107Z" fill="#D58D21"/>
<path id="Vector_3" d="M59.4965 3.39008H59.4636V5.75499L66.9549 10.0722V18.9879L58.9424 23.6054H13.1085L7.15424 20.1741H3.02734V20.1799L12.5543 25.67H59.4965L69.0233 20.1799V8.88025L59.4965 3.39008Z" fill="url(#paint1_linear_4161_2385)"/>
<path id="Vector_4" d="M59.2198 4.61951H59.2197H12.8318H12.8317L4.06201 9.67335V19.7811L12.8317 24.8349L12.8318 24.8349H59.2197L59.2198 24.8349L67.9895 19.7811V9.67335L59.2198 4.61951Z" fill="url(#paint2_linear_4161_2385)"/>
<g id="Vector_5" style="mix-blend-mode:multiply" opacity="0.68">
<path d="M4.71799 10.0373L13.4877 4.98348H13.4878H59.8758H59.8758L67.9895 9.65928V9.46169L59.2198 4.40784L59.2197 4.40785H12.8318V4.40784L4.06201 9.46169V19.5694L4.71799 19.9474V10.0373Z" fill="#990D0A"/>
</g>
<g id="Vector_6" style="mix-blend-mode:overlay" opacity="0.51">
<path d="M0.32666 7.77427L3.02766 8.88551L12.5546 3.39524L12.3975 0.818115L0.32666 7.77427Z" fill="white"/>
</g>
<g id="Vector_7" style="mix-blend-mode:multiply">
<path d="M12.4092 28.6363L12.5547 25.67H59.4969L59.6423 28.6363H12.4092Z" fill="#CE7C1D"/>
</g>
<g id="Vector_8" style="mix-blend-mode:multiply" opacity="0.2">
<path d="M71.7245 7.77429L69.0234 8.88029V20.18L71.7245 21.6868V7.77429Z" fill="#CE7C1D"/>
</g>
<g id="Vector_9" style="mix-blend-mode:multiply" opacity="0.5">
<path d="M71.7245 21.6867L59.642 28.6363L59.4966 25.67L69.0234 20.1799L71.7245 21.6867Z" fill="#CE7C1D"/>
</g>
<path id="Vector_10" d="M71.7247 7.77427L68.7435 8.50946L59.6785 3.17502L59.6539 0.818115L59.2476 3.04598H12.8226L12.3975 0.818115L12.2768 3.13202L2.88258 8.56792L0.32666 7.77427L3.02765 9.11081V8.88551L12.7364 3.39524L59.4968 3.39008L68.5065 8.89909V19.7068L58.9797 25.1969H12.0375L3.29658 20.1598H3.02765V20.1656L12.5546 25.6557H59.4968L69.0236 20.1656V9.12099L71.7247 7.77427Z" fill="#FAFF8F"/>
<g id="Group_4">
<g id="Group_5">
<path id="Vector_11" d="M0 7.87848V11.5059L4.15161 10.2696L0 7.87848Z" fill="#D58D21"/>
<path id="Vector_12" d="M0 7.87883L3.15297 6.07513L4.14279 10.2852L0 7.87883Z" fill="url(#paint3_linear_4161_2385)"/>
<path id="Vector_13" d="M0 7.87881L0.0943629 7.82483L4.14279 10.2852L0 7.98536V7.87881Z" fill="#FAFF8F"/>
</g>
<g id="Group_6">
<path id="Vector_14" d="M71.9998 7.87848V11.5059L67.8481 10.2696L71.9998 7.87848Z" fill="#D58D21"/>
<path id="Vector_15" d="M71.9997 7.87883L68.8467 6.07513L67.8569 10.2852L71.9997 7.87883Z" fill="url(#paint4_linear_4161_2385)"/>
<path id="Vector_16" d="M71.9997 7.87881L71.9054 7.82483L67.8569 10.2852L71.9997 7.98536V7.87881Z" fill="#FAFF8F"/>
</g>
<g id="Group_7">
<path id="Vector_17" d="M71.9998 21.6649V18.0375L67.8481 19.2738L71.9998 21.6649Z" fill="url(#paint5_linear_4161_2385)"/>
<path id="Vector_18" d="M71.9997 21.6646L68.8467 23.4683L67.8569 19.2582L71.9997 21.6646Z" fill="#D58D21"/>
<path id="Vector_19" d="M71.9997 21.6646L71.9054 21.7186L67.8569 19.2582L71.9997 21.558V21.6646Z" fill="#FAFF8F"/>
</g>
<g id="Group_8">
<path id="Vector_20" d="M0 21.6649V18.0375L4.15161 19.2738L0 21.6649Z" fill="url(#paint6_linear_4161_2385)"/>
<path id="Vector_21" d="M0 21.6646L3.15297 23.4683L4.14279 19.2582L0 21.6646Z" fill="#D58D21"/>
<path id="Vector_22" d="M0 21.6646L0.0943629 21.7186L4.14279 19.2582L0 21.558V21.6646Z" fill="#FAFF8F"/>
</g>
</g>
</g>
<g id="Group_9">
<g id="Group_10">
<path id="Vector_23" d="M11.0047 19.6709C10.3733 19.6709 10.0131 19.6615 9.92421 19.643C9.83533 19.6244 9.76042 19.5566 9.69982 19.4399C9.16656 18.3894 8.63092 17.3367 8.09311 16.2817C7.24658 14.5869 6.82324 13.6275 6.82324 13.4035C6.82324 13.0348 6.8362 12.4803 6.86194 11.7404C6.88753 11.0005 6.90049 10.446 6.90049 10.0771C6.90049 9.90449 6.94712 9.81805 7.04072 9.81805C7.32149 9.81805 7.74703 9.82981 8.31767 9.85308C8.8883 9.87653 9.31621 9.88811 9.60152 9.88811C9.71835 9.88811 9.77692 9.93709 9.77692 10.0351C9.77692 10.4133 9.74999 10.9818 9.69629 11.7404C9.64242 12.499 9.6155 13.0674 9.6155 13.4455C9.6155 13.735 10.0902 14.7691 11.0397 16.5477C11.2969 16.0856 11.5893 15.5183 11.9167 14.8461C12.3562 13.9404 12.5763 13.3849 12.5763 13.1794C12.5763 12.8387 12.5715 12.3262 12.5621 11.6423C12.5527 10.9584 12.5481 10.446 12.5481 10.1052C12.5481 9.9791 12.5692 9.90911 12.6113 9.89509H12.8358C13.093 9.89509 13.4824 9.88231 14.0039 9.85661C14.5254 9.83099 14.9147 9.81805 15.1721 9.81805C15.3123 9.81805 15.3825 9.87408 15.3825 9.98615C15.3825 10.3457 15.3766 10.8884 15.365 11.6143C15.3532 12.3403 15.3475 12.8853 15.3475 13.2494C15.3475 13.5389 14.8867 14.6034 13.9653 16.4427C13.6005 17.1056 13.0743 18.1048 12.3867 19.4399C12.3399 19.5427 12.3084 19.5999 12.2921 19.6114C12.2756 19.6231 12.216 19.6336 12.1132 19.643C11.8746 19.6615 11.5052 19.6709 11.0047 19.6709Z" fill="url(#paint7_linear_4161_2385)"/>
<path id="Vector_24" d="M19.269 14.4679C19.269 15.0188 19.2829 15.8475 19.3111 16.9539C19.3392 18.0603 19.3532 18.8891 19.3532 19.4399C19.3532 19.5333 19.3321 19.5916 19.29 19.615C19.2806 19.6197 19.2198 19.6289 19.1076 19.643C18.8036 19.6803 18.3965 19.699 17.8868 19.699C17.2039 19.699 16.7689 19.6803 16.5819 19.643C16.4463 19.615 16.3784 19.5427 16.3784 19.4259C16.3784 19.5006 16.3995 19.0898 16.4415 18.1934C16.5259 16.3027 16.568 15.0608 16.568 14.4679C16.568 13.9685 16.5515 13.2191 16.5188 12.22C16.486 11.221 16.4696 10.4717 16.4696 9.97212C16.4696 9.86946 16.5233 9.81805 16.6311 9.81805C16.776 9.81805 16.9947 9.8251 17.2871 9.83905C17.5793 9.85308 17.7979 9.86006 17.9431 9.86006C18.088 9.86006 18.3019 9.85308 18.5849 9.83905C18.8678 9.8251 19.0818 9.81805 19.2269 9.81805C19.3624 9.81805 19.4302 9.86946 19.4302 9.97212C19.4302 10.4717 19.4033 11.221 19.3496 12.22C19.2957 13.2191 19.269 13.9685 19.269 14.4679Z" fill="url(#paint8_linear_4161_2385)"/>
<path id="Vector_25" d="M28.8945 18.0603C28.8945 18.1351 28.8453 18.2331 28.7472 18.3544C27.8865 19.3768 26.7429 19.888 25.3164 19.888C23.8572 19.888 22.6738 19.3909 21.7665 18.3964C20.8825 17.4348 20.4404 16.221 20.4404 14.7551C20.4404 13.3359 20.873 12.1314 21.7384 11.1416C22.641 10.1052 23.7894 9.58704 25.1831 9.58704C26.6984 9.58704 27.8865 10.0516 28.7472 10.9806C28.8406 11.0833 28.8874 11.1743 28.8874 11.2536C28.8874 11.3424 28.7248 11.6715 28.3999 12.2411C28.0747 12.8106 27.8702 13.1304 27.786 13.2005C27.7485 13.2378 27.7019 13.2565 27.6456 13.2565C27.6222 13.2565 27.5054 13.1632 27.2948 12.9763C27.0423 12.7523 26.7944 12.5772 26.5511 12.4511C26.1817 12.2644 25.798 12.171 25.4006 12.171C24.713 12.171 24.1634 12.4278 23.752 12.9413C23.3731 13.4175 23.1837 14.0058 23.1837 14.706C23.1837 15.4157 23.3731 16.0109 23.752 16.4917C24.1634 17.0147 24.713 17.276 25.4006 17.276C25.8075 17.276 26.1934 17.1874 26.5582 17.0099C26.7967 16.8933 27.0398 16.7299 27.2878 16.5198C27.4936 16.3424 27.6081 16.2536 27.6317 16.2536C27.6783 16.2536 27.7251 16.2793 27.7719 16.3306C27.8466 16.4147 28.0501 16.7065 28.3822 17.206C28.7236 17.7242 28.8945 18.009 28.8945 18.0603Z" fill="url(#paint9_linear_4161_2385)"/>
<path id="Vector_26" d="M36.4856 11.9609C36.4856 12.0544 36.4341 12.101 36.3313 12.101C36.1535 12.101 35.4496 12.0659 34.2196 11.9959C34.1915 13.1771 34.1775 14.0011 34.1775 14.4679C34.1775 15.0188 34.1997 15.8475 34.2442 16.9539C34.2886 18.0603 34.3108 18.889 34.3108 19.4399C34.3108 19.5286 34.2898 19.5846 34.2477 19.6079C34.2335 19.6173 34.1681 19.6289 34.0512 19.6429C33.7706 19.6802 33.3589 19.699 32.8164 19.699C32.2131 19.699 31.7897 19.6802 31.5467 19.6429C31.4155 19.6197 31.3502 19.5473 31.3502 19.4258C31.3502 18.875 31.3734 18.0487 31.4202 16.9469C31.467 15.8451 31.4904 15.0188 31.4904 14.4679C31.4904 14.1038 31.4718 13.2914 31.4344 12.0309C30.4988 12.1243 29.7529 12.171 29.1963 12.171C29.1215 12.171 29.084 12.1477 29.084 12.101C29.084 12.0403 29.1168 11.8605 29.1823 11.5617C29.257 11.235 29.2991 11.0365 29.3085 10.9665C29.3227 10.7471 29.339 10.5277 29.3577 10.3082C29.3903 9.95807 29.4464 9.78299 29.526 9.78299C29.5354 9.78299 29.5681 9.78542 29.6243 9.79005C30.382 9.88808 31.502 9.93706 32.9849 9.93706C33.4057 9.93706 34.182 9.89279 35.3141 9.80407C35.9221 9.75746 36.2284 9.73401 36.2331 9.73401C36.3266 9.73401 36.3804 9.7399 36.3944 9.75148C36.4085 9.76324 36.4178 9.80877 36.4225 9.88808C36.4225 10.0141 36.4178 10.1892 36.4085 10.4133C36.3991 10.6608 36.3944 10.8359 36.3944 10.9385C36.3944 11.0552 36.4095 11.2268 36.44 11.4532C36.4705 11.6797 36.4856 11.8489 36.4856 11.9609Z" fill="url(#paint10_linear_4161_2385)"/>
<path id="Vector_27" d="M46.9811 14.741C46.9811 16.1975 46.5157 17.4185 45.585 18.4035C44.6354 19.4026 43.4334 19.902 41.9788 19.902C40.5335 19.902 39.3339 19.3979 38.3798 18.3894C37.4442 17.4044 36.9766 16.1883 36.9766 14.741C36.9766 13.2891 37.4442 12.0683 38.3798 11.0786C39.3339 10.0655 40.5335 9.55896 41.9788 9.55896C43.4147 9.55896 44.612 10.0655 45.5708 11.0786C46.5109 12.0777 46.9811 13.2985 46.9811 14.741ZM44.3222 14.727C44.3222 14.0268 44.1092 13.4315 43.6837 12.9413C43.2393 12.4278 42.671 12.171 41.9788 12.171C41.3193 12.171 40.7605 12.4371 40.3021 12.9693C39.8577 13.483 39.6355 14.0735 39.6355 14.741C39.6355 15.4553 39.8436 16.0505 40.26 16.5267C40.6995 17.0263 41.2725 17.276 41.9788 17.276C42.6383 17.276 43.1996 17.0123 43.6626 16.4847C44.1021 15.9805 44.3222 15.3947 44.3222 14.727Z" fill="url(#paint11_linear_4161_2385)"/>
<path id="Vector_28" d="M56.3892 19.5729C56.3892 19.6057 56.3424 19.6289 56.249 19.643C56.071 19.671 55.6245 19.685 54.9089 19.685C54.2962 19.685 53.8799 19.671 53.66 19.643C53.5572 19.6289 53.4988 19.6173 53.4846 19.6079C53.4567 19.594 53.4239 19.5474 53.3865 19.4679C53.3163 19.2858 53.2133 19.0152 53.0778 18.6556C52.8953 18.1888 52.61 17.5001 52.2218 16.5897C52.1377 16.4077 51.9436 16.3074 51.6396 16.2887C51.7798 16.2981 51.5389 16.3027 50.9169 16.3027C50.8467 16.3027 50.8117 16.4217 50.8117 16.6598C50.8117 16.9773 50.8408 17.4511 50.8994 18.0813C50.9578 18.7116 50.9871 19.1855 50.9871 19.5029C50.9871 19.5823 50.9661 19.6289 50.924 19.643C50.8583 19.6476 50.7929 19.6523 50.7276 19.657C50.4515 19.6756 50.0212 19.685 49.4366 19.685C48.7677 19.685 48.3656 19.671 48.2299 19.643C48.0942 19.615 48.0264 19.5427 48.0264 19.4259C48.0264 18.9124 48.0509 18.1374 48.1001 17.1009C48.1493 16.0646 48.1738 15.2872 48.1738 14.7691C48.1738 12.7943 48.1292 11.2536 48.0405 10.1472L48.0334 10.0492C48.0287 9.96987 48.1025 9.91611 48.2545 9.88813C48.4065 9.86008 49.1209 9.83209 50.3978 9.80411C51.263 9.78547 51.9528 9.77606 52.4674 9.77606C53.5338 9.77606 54.4037 10.0166 55.0772 10.4974C55.8396 11.039 56.2208 11.8209 56.2208 12.8432C56.2208 13.525 56.1225 14.0688 55.9261 14.475C55.7297 14.8811 55.3672 15.2757 54.8387 15.6584C54.7311 15.7332 54.6774 15.8031 54.6774 15.8685C54.6774 15.8639 54.9626 16.4497 55.5332 17.6262C56.1039 18.8026 56.3892 19.4516 56.3892 19.5729ZM53.4426 13.2914C53.4426 12.7219 53.2556 12.3275 52.8813 12.108C52.5913 11.9399 52.1377 11.8559 51.5202 11.8559C51.0758 11.8559 50.8397 11.9236 50.8117 12.0589C50.7836 12.2177 50.7696 12.6752 50.7696 13.4315C50.7696 13.5389 50.7718 13.6976 50.7765 13.9077C50.7813 14.1177 50.7836 14.2743 50.7836 14.3769C50.7836 14.4003 50.8584 14.4236 51.0082 14.4469C51.2933 14.4889 51.5928 14.5099 51.9062 14.5099C52.9305 14.5099 53.4426 14.1038 53.4426 13.2914Z" fill="url(#paint12_linear_4161_2385)"/>
<path id="Vector_29" d="M65.229 12.3601C65.229 12.5609 65.1915 12.7359 65.1167 12.8853C64.5038 14.0945 63.6691 15.3667 62.6121 16.7018C62.4623 16.8979 62.3876 17.0754 62.3876 17.234C62.3876 17.4815 62.4016 17.8526 62.4297 18.3474C62.4578 18.8423 62.4717 19.2112 62.4717 19.4538C62.4717 19.5379 62.4531 19.5894 62.4157 19.6079C62.4063 19.6126 62.343 19.6244 62.2262 19.643C62.0578 19.6709 61.6368 19.685 60.9633 19.685C60.2851 19.685 59.8525 19.6709 59.6655 19.643C59.5344 19.6244 59.4691 19.5566 59.4691 19.4399C59.4691 19.1925 59.4901 18.8155 59.5322 18.309C59.5743 17.8024 59.5953 17.4231 59.5953 17.171C59.5953 17.0216 59.5391 16.8606 59.427 16.6877C58.8609 15.8895 58.0519 14.6664 56.9995 13.0183C56.8918 12.8363 56.8381 12.6869 56.8381 12.5702C56.8381 12.29 56.8241 11.8699 56.796 11.3096C56.7679 10.7495 56.7539 10.3292 56.7539 10.0492C56.7539 9.89509 56.8005 9.81805 56.8943 9.81805C57.1795 9.81805 57.6121 9.82981 58.1921 9.85308C58.772 9.87653 59.207 9.88811 59.497 9.88811C59.6046 9.88811 59.6584 9.92314 59.6584 9.99313C59.6584 10.2312 59.6478 10.5896 59.6268 11.068C59.6058 11.5466 59.5953 11.9049 59.5953 12.143C59.5953 12.2831 59.801 12.6332 60.2128 13.1934C60.54 13.6322 60.809 13.9707 61.0196 14.2088C61.2113 13.9848 61.4661 13.6485 61.7841 13.2004C62.1864 12.6402 62.3876 12.3018 62.3876 12.185C62.3876 11.9516 62.3701 11.598 62.3349 11.1241C62.2999 10.6503 62.2824 10.2967 62.2824 10.0632C62.2824 9.96514 62.3034 9.90911 62.3455 9.89509H62.5209C62.8015 9.89509 63.2235 9.88231 63.7872 9.85661C64.3508 9.83099 64.7752 9.81805 65.0605 9.81805C65.1541 9.81805 65.2009 9.91853 65.2009 10.1192C65.2009 10.3667 65.2054 10.739 65.2149 11.2361C65.2243 11.7333 65.229 12.108 65.229 12.3601Z" fill="url(#paint13_linear_4161_2385)"/>
</g>
<g id="Group_11" style="mix-blend-mode:overlay">
<path id="Vector_30" d="M7.03821 13.6626C7.03821 13.2939 7.05117 12.7394 7.07693 11.9995C7.10252 11.2596 7.11548 10.7051 7.11548 10.3362C7.11548 10.1636 7.16211 10.0771 7.25569 10.0771C7.53648 10.0771 7.962 10.0889 8.53264 10.1122C9.07758 10.1346 9.49078 10.146 9.77551 10.147C9.77599 10.1086 9.77645 10.0702 9.77645 10.0351C9.77645 9.93709 9.71787 9.88811 9.60104 9.88811C9.31573 9.88811 8.88782 9.87653 8.31718 9.85308C7.74655 9.82981 7.321 9.81805 7.04024 9.81805C6.94664 9.81805 6.90002 9.90449 6.90002 10.0771C6.90002 10.446 6.88706 11.0005 6.86147 11.7404C6.83571 12.4803 6.82275 13.0348 6.82275 13.4035C6.82275 13.6275 7.2461 14.5869 8.09264 16.2817C8.63045 17.3367 9.16607 18.3894 9.69934 19.4399C9.74909 19.5357 9.80901 19.5966 9.87786 19.6264C9.35679 18.6 8.83358 17.5715 8.3081 16.5407C7.46157 14.846 7.03821 13.8866 7.03821 13.6626Z" fill="url(#paint14_linear_4161_2385)"/>
<path id="Vector_31" d="M12.1319 15.1052C12.5714 14.1995 12.7914 13.644 12.7914 13.4385C12.7914 13.0978 12.7867 12.5853 12.7773 11.9014C12.7678 11.2175 12.7633 10.7051 12.7633 10.3643C12.7633 10.2382 12.7843 10.1682 12.8264 10.1542H13.051C13.3082 10.1542 13.6975 10.1414 14.219 10.1157C14.7372 10.0902 15.1246 10.0773 15.382 10.0772C15.3821 10.0463 15.3822 10.0147 15.3822 9.98615C15.3822 9.87408 15.312 9.81805 15.1718 9.81805C14.9144 9.81805 14.525 9.83099 14.0035 9.85661C13.4821 9.88231 13.0927 9.89509 12.8355 9.89509H12.6109C12.5689 9.90911 12.5478 9.9791 12.5478 10.1052C12.5478 10.446 12.5524 10.9584 12.5618 11.6423C12.5712 12.3262 12.5759 12.8387 12.5759 13.1794C12.5759 13.3849 12.3559 13.9404 11.9164 14.8461C11.6056 15.4844 11.3267 16.0268 11.0791 16.4757C11.1358 16.5831 11.1943 16.6933 11.2549 16.8068C11.5121 16.3447 11.8045 15.7774 12.1319 15.1052Z" fill="url(#paint15_linear_4161_2385)"/>
<path id="Vector_32" d="M16.3788 19.4312C16.3788 19.4293 16.3779 19.4279 16.3779 19.4259C16.3779 19.4343 16.3782 19.4357 16.3788 19.4312Z" fill="url(#paint16_linear_4161_2385)"/>
<path id="Vector_33" d="M16.783 14.727C16.783 14.2275 16.7665 13.4782 16.7338 12.4791C16.701 11.4801 16.6847 10.7308 16.6847 10.2312C16.6847 10.1285 16.7384 10.0771 16.8461 10.0771C16.991 10.0771 17.2097 10.0842 17.5021 10.0981C17.7943 10.1122 18.013 10.1191 18.1581 10.1191C18.303 10.1191 18.5169 10.1122 18.7999 10.0981C19.0755 10.0846 19.2844 10.0776 19.4292 10.0773C19.4294 10.0421 19.4298 10.0051 19.4298 9.97212C19.4298 9.86946 19.362 9.81805 19.2265 9.81805C19.0814 9.81805 18.8674 9.8251 18.5844 9.83905C18.3015 9.85308 18.0875 9.86006 17.9426 9.86006C17.7975 9.86006 17.5789 9.85308 17.2866 9.83905C16.9942 9.8251 16.7756 9.81805 16.6306 9.81805C16.5229 9.81805 16.4692 9.86946 16.4692 9.97212C16.4692 10.4717 16.4855 11.221 16.5184 12.22C16.551 13.2191 16.5675 13.9685 16.5675 14.4679C16.5675 15.0608 16.5254 16.3027 16.4411 18.1934C16.404 18.9842 16.3833 19.3965 16.3789 19.4315C16.3813 19.5447 16.4483 19.6155 16.5815 19.643C16.5861 19.6439 16.5928 19.6446 16.5977 19.6455C16.6057 19.5154 16.6253 19.1181 16.6566 18.4525C16.7409 16.5617 16.783 15.3199 16.783 14.727Z" fill="url(#paint17_linear_4161_2385)"/>
<path id="Vector_34" d="M25.6157 17.5351C26.0226 17.5351 26.4086 17.4465 26.7733 17.269C27.0119 17.1523 27.2549 16.9889 27.5029 16.7788C27.7088 16.6015 27.8232 16.5127 27.8468 16.5127C27.8753 16.5127 27.9039 16.5257 27.9326 16.5449C27.8571 16.4384 27.8026 16.3655 27.7715 16.3306C27.7247 16.2793 27.678 16.2536 27.6313 16.2536C27.6077 16.2536 27.4933 16.3424 27.2874 16.5198C27.0395 16.7299 26.7964 16.8933 26.5579 17.0099C26.1931 17.1874 25.8071 17.276 25.4003 17.276C24.7997 17.276 24.3044 17.0764 23.9146 16.6775C23.9323 16.7018 23.9484 16.727 23.9671 16.7508C24.3785 17.2737 24.9281 17.5351 25.6157 17.5351Z" fill="url(#paint18_linear_4161_2385)"/>
<path id="Vector_35" d="M21.9539 11.4007C22.8565 10.3643 24.0048 9.84613 25.3986 9.84613C26.8511 9.84613 28.0021 10.2742 28.8531 11.1278C28.8297 11.0817 28.7946 11.0327 28.7472 10.9806C27.8865 10.0516 26.6984 9.58704 25.1831 9.58704C23.7894 9.58704 22.641 10.1052 21.7384 11.1416C20.873 12.1314 20.4404 13.3359 20.4404 14.7551C20.4404 16.1886 20.8643 17.3803 21.7097 18.3316C21.0079 17.4258 20.6559 16.3203 20.6559 15.0141C20.6559 13.595 21.0885 12.3905 21.9539 11.4007Z" fill="url(#paint19_linear_4161_2385)"/>
<path id="Vector_36" d="M29.5235 11.2256C29.5377 11.0062 29.554 10.7868 29.5727 10.5673C29.6053 10.2172 29.6614 10.0421 29.741 10.0421C29.7504 10.0421 29.7831 10.0445 29.8393 10.0491C30.5969 10.1472 31.717 10.1962 33.1998 10.1962C33.6207 10.1962 34.397 10.1519 35.529 10.0632C36.0419 10.0238 36.3375 10.0012 36.4211 9.99503C36.4217 9.95622 36.422 9.92042 36.422 9.88808C36.4173 9.80877 36.408 9.76324 36.3939 9.75148C36.3799 9.7399 36.3261 9.73401 36.2326 9.73401C36.2279 9.73401 35.9216 9.75746 35.3136 9.80407C34.1815 9.89279 33.4052 9.93706 32.9844 9.93706C31.5016 9.93706 30.3815 9.88808 29.6238 9.79005C29.5676 9.78542 29.535 9.78299 29.5255 9.78299C29.4459 9.78299 29.3898 9.95807 29.3572 10.3082C29.3385 10.5277 29.3222 10.7471 29.308 10.9665C29.2986 11.0365 29.2565 11.235 29.1818 11.5617C29.1163 11.8605 29.0835 12.0403 29.0835 12.101C29.0835 12.1477 29.121 12.171 29.1958 12.171C29.2373 12.171 29.2819 12.1702 29.3255 12.1697C29.3419 12.0809 29.3657 11.9651 29.3973 11.8208C29.472 11.4941 29.5141 11.2956 29.5235 11.2256Z" fill="url(#paint20_linear_4161_2385)"/>
<path id="Vector_37" d="M31.7058 14.727C31.7058 14.3629 31.6871 13.5505 31.6497 12.29C31.5789 12.2971 31.5112 12.3034 31.4424 12.31C31.4743 13.4116 31.4903 14.1315 31.4903 14.4679C31.4903 15.0188 31.4669 15.8451 31.4201 16.9469C31.3733 18.0487 31.3501 18.875 31.3501 19.4259C31.3501 19.5473 31.4154 19.6197 31.5465 19.643C31.5524 19.6439 31.5597 19.6446 31.5658 19.6455C31.5668 19.0949 31.5899 18.283 31.6356 17.206C31.6824 16.1042 31.7058 15.2779 31.7058 14.727Z" fill="url(#paint21_linear_4161_2385)"/>
<path id="Vector_38" d="M43.6622 16.4847C43.1992 17.0123 42.6379 17.276 41.9784 17.276C41.3037 17.276 40.7521 17.0454 40.3208 16.5895C40.3688 16.6569 40.4198 16.7226 40.4751 16.7858C40.9146 17.2854 41.4876 17.5351 42.1939 17.5351C42.8534 17.5351 43.4146 17.2714 43.8777 16.7438C44.3172 16.2395 44.5372 15.6538 44.5372 14.9861C44.5372 14.2858 44.3243 13.6905 43.8987 13.2003C43.8785 13.1769 43.8566 13.1568 43.8358 13.1345C44.1596 13.5854 44.3218 14.1162 44.3218 14.727C44.3218 15.3947 44.1018 15.9805 43.6622 16.4847Z" fill="url(#paint22_linear_4161_2385)"/>
<path id="Vector_39" d="M38.5952 11.3377C39.5493 10.3246 40.749 9.81805 42.1943 9.81805C43.6301 9.81805 44.8275 10.3246 45.7863 11.3377C45.8288 11.3829 45.8693 11.429 45.9099 11.4752C45.8046 11.3394 45.6917 11.2071 45.5708 11.0786C44.612 10.0655 43.4147 9.55896 41.9788 9.55896C40.5336 9.55896 39.3339 10.0655 38.3798 11.0786C37.4442 12.0683 36.9766 13.2891 36.9766 14.741C36.9766 16.119 37.4015 17.2869 38.2496 18.2459C37.5449 17.338 37.192 16.2562 37.192 15.0001C37.192 13.5482 37.6596 12.3274 38.5952 11.3377Z" fill="url(#paint23_linear_4161_2385)"/>
<path id="Vector_40" d="M53.2521 12.4801C53.3775 12.6925 53.4422 12.9616 53.4422 13.2914C53.4422 14.1038 52.9302 14.5099 51.9059 14.5099C51.5924 14.5099 51.293 14.4889 51.0078 14.4469C51.0037 14.4462 51.0011 14.4456 50.9971 14.445C50.9982 14.5216 50.9987 14.5854 50.9987 14.636C50.9987 14.6593 51.0735 14.6827 51.2233 14.706C51.5085 14.748 51.8079 14.769 52.1213 14.769C53.1456 14.769 53.6577 14.3629 53.6577 13.5505C53.6577 13.0672 53.5216 12.7113 53.2521 12.4801Z" fill="url(#paint24_linear_4161_2385)"/>
<path id="Vector_41" d="M48.3888 15.0282C48.3888 13.0534 48.3442 11.5127 48.2555 10.4063L48.2484 10.3083C48.2437 10.229 48.3174 10.1752 48.4694 10.1472C48.6214 10.1192 49.3358 10.0912 50.6128 10.0632C51.478 10.0445 52.1678 10.0351 52.6824 10.0351C53.7488 10.0351 54.6187 10.2757 55.2922 10.7564C55.4482 10.8673 55.5841 10.9908 55.7082 11.1217C55.5388 10.8877 55.3309 10.6779 55.0767 10.4974C54.4032 10.0166 53.5333 9.77606 52.4669 9.77606C51.9523 9.77606 51.2625 9.78547 50.3973 9.80411C49.1203 9.83209 48.406 9.86008 48.254 9.88813C48.1019 9.91611 48.0282 9.96987 48.0329 10.0492L48.04 10.1472C48.1287 11.2536 48.1733 12.7943 48.1733 14.7691C48.1733 15.2872 48.1488 16.0646 48.0996 17.1009C48.0504 18.1374 48.0259 18.9124 48.0259 19.4259C48.0259 19.5427 48.0937 19.615 48.2294 19.643C48.2327 19.6436 48.238 19.6442 48.2416 19.6449C48.2428 19.1315 48.2671 18.3711 48.3151 17.36C48.3642 16.3237 48.3888 15.5463 48.3888 15.0282Z" fill="url(#paint25_linear_4161_2385)"/>
<path id="Vector_42" d="M52.4372 16.8488C52.3979 16.7638 52.3337 16.6974 52.2466 16.6481C52.6218 17.5289 52.8993 18.199 53.0777 18.6556C53.2132 19.0152 53.3162 19.2858 53.3864 19.4679C53.4238 19.5473 53.4566 19.594 53.4846 19.6079C53.4934 19.6138 53.5212 19.6205 53.564 19.6281C53.4962 19.4514 53.4068 19.2162 53.2932 18.9147C53.1107 18.4478 52.8254 17.7592 52.4372 16.8488Z" fill="url(#paint26_linear_4161_2385)"/>
<path id="Vector_43" d="M61.9995 13.4595C62.4018 12.8993 62.6029 12.5609 62.6029 12.4441C62.6029 12.2107 62.5854 11.857 62.5502 11.3832C62.5152 10.9094 62.4977 10.5557 62.4977 10.3223C62.4977 10.2242 62.5187 10.1682 62.5608 10.1542H62.7362C63.0168 10.1542 63.4388 10.1414 64.0026 10.1157C64.5178 10.0923 64.9154 10.0796 65.198 10.0776C65.1912 9.90733 65.1466 9.81805 65.0604 9.81805C64.7751 9.81805 64.3507 9.83099 63.7871 9.85661C63.2234 9.88231 62.8014 9.89509 62.5208 9.89509H62.3454C62.3033 9.90911 62.2823 9.96514 62.2823 10.0632C62.2823 10.2967 62.2998 10.6503 62.3348 11.1241C62.37 11.598 62.3875 11.9516 62.3875 12.185C62.3875 12.3018 62.1863 12.6402 61.784 13.2004C61.466 13.6485 61.2112 13.9848 61.0194 14.2088C60.9982 14.1848 60.9737 14.1551 60.9512 14.129C61.0543 14.2566 61.1506 14.3725 61.2349 14.4679C61.4266 14.2438 61.6815 13.9076 61.9995 13.4595Z" fill="url(#paint27_linear_4161_2385)"/>
<path id="Vector_44" d="M59.8108 17.4301C59.8108 17.2807 59.7546 17.1196 59.6425 16.9468C59.0764 16.1486 58.2674 14.9255 57.215 13.2774C57.1072 13.0953 57.0535 12.946 57.0535 12.8293C57.0535 12.5491 57.0396 12.129 57.0115 11.5687C56.9833 11.0086 56.9694 10.5883 56.9694 10.3082C56.9694 10.1542 57.016 10.0771 57.1098 10.0771C57.3949 10.0771 57.8275 10.0889 58.4076 10.1122C58.9528 10.1342 59.3682 10.1456 59.6571 10.1469C59.6579 10.0916 59.6584 10.0394 59.6584 9.99313C59.6584 9.92314 59.6046 9.88811 59.497 9.88811C59.207 9.88811 58.772 9.87653 58.1921 9.85308C57.612 9.82981 57.1794 9.81805 56.8943 9.81805C56.8005 9.81805 56.7539 9.89509 56.7539 10.0492C56.7539 10.3292 56.7679 10.7495 56.796 11.3096C56.8241 11.8699 56.8381 12.29 56.8381 12.5702C56.8381 12.6869 56.8918 12.8363 56.9995 13.0183C58.0519 14.6664 58.8609 15.8895 59.427 16.6877C59.5391 16.8606 59.5953 17.0216 59.5953 17.171C59.5953 17.4231 59.5743 17.8024 59.5322 18.309C59.4901 18.8155 59.4691 19.1925 59.4691 19.4399C59.4691 19.5566 59.5344 19.6244 59.6655 19.643C59.6711 19.6438 59.6791 19.6445 59.6851 19.6453C59.6878 19.3983 59.7084 19.0402 59.7477 18.568C59.7897 18.0615 59.8108 17.6822 59.8108 17.4301Z" fill="url(#paint28_linear_4161_2385)"/>
</g>
</g>
</g>
</g>
</g>
<defs>
<linearGradient id="paint0_linear_4161_2385" x1="37.7893" y1="28.1326" x2="31.3489" y2="-20.9911" gradientUnits="userSpaceOnUse">
<stop stop-color="#CE7C1D"/>
<stop offset="1" stop-color="#F7E436"/>
</linearGradient>
<linearGradient id="paint1_linear_4161_2385" x1="3.02734" y1="14.5301" x2="69.0233" y2="14.5301" gradientUnits="userSpaceOnUse">
<stop offset="0.246865" stop-color="#F7E436"/>
<stop offset="1" stop-color="#D58D21"/>
</linearGradient>
<linearGradient id="paint2_linear_4161_2385" x1="51.0482" y1="31.864" x2="23.9756" y2="0.866544" gradientUnits="userSpaceOnUse">
<stop stop-color="#2B8600"/>
<stop offset="1" stop-color="#00D66B"/>
</linearGradient>
<linearGradient id="paint3_linear_4161_2385" x1="2.11631" y1="9.02675" x2="4.66518" y2="5.88007" gradientUnits="userSpaceOnUse">
<stop offset="0.246865" stop-color="#F7E436"/>
<stop offset="1" stop-color="#D58D21"/>
</linearGradient>
<linearGradient id="paint4_linear_4161_2385" x1="69.8834" y1="9.02675" x2="67.3345" y2="5.88006" gradientUnits="userSpaceOnUse">
<stop offset="0.246865" stop-color="#F7E436"/>
<stop offset="1" stop-color="#D58D21"/>
</linearGradient>
<linearGradient id="paint5_linear_4161_2385" x1="68.5848" y1="17.6938" x2="73.2815" y2="21.0799" gradientUnits="userSpaceOnUse">
<stop offset="0.246865" stop-color="#F7E436"/>
<stop offset="1" stop-color="#D58D21"/>
</linearGradient>
<linearGradient id="paint6_linear_4161_2385" x1="2.64953" y1="18.2397" x2="-2.00317" y2="21.6257" gradientUnits="userSpaceOnUse">
<stop offset="0.246865" stop-color="#F7E436"/>
<stop offset="1" stop-color="#D58D21"/>
</linearGradient>
<linearGradient id="paint7_linear_4161_2385" x1="11.2911" y1="41.9386" x2="11.0621" y2="5.00487" gradientUnits="userSpaceOnUse">
<stop stop-color="#CE7C1D"/>
<stop offset="1" stop-color="#F7E436"/>
</linearGradient>
<linearGradient id="paint8_linear_4161_2385" x1="18.0736" y1="41.8966" x2="17.8446" y2="4.96288" gradientUnits="userSpaceOnUse">
<stop stop-color="#CE7C1D"/>
<stop offset="1" stop-color="#F7E436"/>
</linearGradient>
<linearGradient id="paint9_linear_4161_2385" x1="24.8434" y1="41.8546" x2="24.6144" y2="4.92085" gradientUnits="userSpaceOnUse">
<stop stop-color="#CE7C1D"/>
<stop offset="1" stop-color="#F7E436"/>
</linearGradient>
<linearGradient id="paint10_linear_4161_2385" x1="32.9701" y1="41.8042" x2="32.7411" y2="4.87047" gradientUnits="userSpaceOnUse">
<stop stop-color="#CE7C1D"/>
<stop offset="1" stop-color="#F7E436"/>
</linearGradient>
<linearGradient id="paint11_linear_4161_2385" x1="42.1469" y1="41.7473" x2="41.9179" y2="4.8136" gradientUnits="userSpaceOnUse">
<stop stop-color="#CE7C1D"/>
<stop offset="1" stop-color="#F7E436"/>
</linearGradient>
<linearGradient id="paint12_linear_4161_2385" x1="52.3458" y1="41.6841" x2="52.1168" y2="4.75044" gradientUnits="userSpaceOnUse">
<stop stop-color="#CE7C1D"/>
<stop offset="1" stop-color="#F7E436"/>
</linearGradient>
<linearGradient id="paint13_linear_4161_2385" x1="61.1809" y1="41.6294" x2="60.9519" y2="4.69563" gradientUnits="userSpaceOnUse">
<stop stop-color="#CE7C1D"/>
<stop offset="1" stop-color="#F7E436"/>
</linearGradient>
<linearGradient id="paint14_linear_4161_2385" x1="8.50863" y1="41.9559" x2="8.27963" y2="5.02221" gradientUnits="userSpaceOnUse">
<stop stop-color="white"/>
<stop offset="1" stop-color="#F7E436"/>
</linearGradient>
<linearGradient id="paint15_linear_4161_2385" x1="13.4092" y1="41.9254" x2="13.1802" y2="4.9918" gradientUnits="userSpaceOnUse">
<stop stop-color="white"/>
<stop offset="1" stop-color="#F7E436"/>
</linearGradient>
<linearGradient id="paint16_linear_4161_2385" x1="16.5115" y1="40.782" x2="16.2945" y2="5.69537" gradientUnits="userSpaceOnUse">
<stop stop-color="white"/>
<stop offset="1" stop-color="#F7E436"/>
</linearGradient>
<linearGradient id="paint17_linear_4161_2385" x1="18.0736" y1="41.8966" x2="17.8446" y2="4.96291" gradientUnits="userSpaceOnUse">
<stop stop-color="white"/>
<stop offset="1" stop-color="#F7E436"/>
</linearGradient>
<linearGradient id="paint18_linear_4161_2385" x1="26.0806" y1="41.847" x2="25.8516" y2="4.91316" gradientUnits="userSpaceOnUse">
<stop stop-color="white"/>
<stop offset="1" stop-color="#F7E436"/>
</linearGradient>
<linearGradient id="paint19_linear_4161_2385" x1="24.8266" y1="41.8547" x2="24.5976" y2="4.92099" gradientUnits="userSpaceOnUse">
<stop stop-color="white"/>
<stop offset="1" stop-color="#F7E436"/>
</linearGradient>
<linearGradient id="paint20_linear_4161_2385" x1="32.9445" y1="41.8043" x2="32.7155" y2="4.87067" gradientUnits="userSpaceOnUse">
<stop stop-color="white"/>
<stop offset="1" stop-color="#F7E436"/>
</linearGradient>
<linearGradient id="paint21_linear_4161_2385" x1="31.682" y1="41.8122" x2="31.453" y2="4.87852" gradientUnits="userSpaceOnUse">
<stop stop-color="white"/>
<stop offset="1" stop-color="#F7E436"/>
</linearGradient>
<linearGradient id="paint22_linear_4161_2385" x1="42.5906" y1="41.7446" x2="42.3616" y2="4.81088" gradientUnits="userSpaceOnUse">
<stop stop-color="white"/>
<stop offset="1" stop-color="#F7E436"/>
</linearGradient>
<linearGradient id="paint23_linear_4161_2385" x1="41.6214" y1="41.7506" x2="41.3924" y2="4.8169" gradientUnits="userSpaceOnUse">
<stop stop-color="white"/>
<stop offset="1" stop-color="#F7E436"/>
</linearGradient>
<linearGradient id="paint24_linear_4161_2385" x1="52.4997" y1="41.6834" x2="52.2707" y2="4.74948" gradientUnits="userSpaceOnUse">
<stop stop-color="white"/>
<stop offset="1" stop-color="#F7E436"/>
</linearGradient>
<linearGradient id="paint25_linear_4161_2385" x1="52.0314" y1="41.686" x2="51.8024" y2="4.75228" gradientUnits="userSpaceOnUse">
<stop stop-color="white"/>
<stop offset="1" stop-color="#F7E436"/>
</linearGradient>
<linearGradient id="paint26_linear_4161_2385" x1="53.0518" y1="41.6798" x2="52.8228" y2="4.74585" gradientUnits="userSpaceOnUse">
<stop stop-color="white"/>
<stop offset="1" stop-color="#F7E436"/>
</linearGradient>
<linearGradient id="paint27_linear_4161_2385" x1="63.2582" y1="41.6165" x2="63.0292" y2="4.68275" gradientUnits="userSpaceOnUse">
<stop stop-color="white"/>
<stop offset="1" stop-color="#F7E436"/>
</linearGradient>
<linearGradient id="paint28_linear_4161_2385" x1="58.4559" y1="41.6462" x2="58.2269" y2="4.71247" gradientUnits="userSpaceOnUse">
<stop stop-color="white"/>
<stop offset="1" stop-color="#F7E436"/>
</linearGradient>
</defs>
</svg>
