<svg width="20" height="21" viewBox="0 0 20 21" fill="none" xmlns="http://www.w3.org/2000/svg">
<g id="image">
<path id="Vector" d="M16.875 3.94318H3.125C2.79348 3.94318 2.47554 4.07487 2.24112 4.30929C2.0067 4.54371 1.875 4.86166 1.875 5.19318V16.4432C1.875 16.7747 2.0067 17.0926 2.24112 17.3271C2.47554 17.5615 2.79348 17.6932 3.125 17.6932H16.875C17.2065 17.6932 17.5245 17.5615 17.7589 17.3271C17.9933 17.0926 18.125 16.7747 18.125 16.4432V5.19318C18.125 4.86166 17.9933 4.54371 17.7589 4.30929C17.5245 4.07487 17.2065 3.94318 16.875 3.94318ZM16.875 5.19318V13.2205L14.8383 11.1846C14.7222 11.0685 14.5844 10.9764 14.4327 10.9135C14.281 10.8507 14.1185 10.8184 13.9543 10.8184C13.7901 10.8184 13.6276 10.8507 13.4759 10.9135C13.3242 10.9764 13.1864 11.0685 13.0703 11.1846L11.5078 12.7471L8.07031 9.30958C7.83592 9.07534 7.5181 8.94376 7.18672 8.94376C6.85534 8.94376 6.53752 9.07534 6.30312 9.30958L3.125 12.4877V5.19318H16.875ZM3.125 14.2557L7.1875 10.1932L13.4375 16.4432H3.125V14.2557ZM16.875 16.4432H15.2055L12.393 13.6307L13.9555 12.0682L16.875 14.9885V16.4432ZM11.25 8.63068C11.25 8.44526 11.305 8.264 11.408 8.10983C11.511 7.95566 11.6574 7.8355 11.8287 7.76454C12 7.69358 12.1885 7.67502 12.3704 7.71119C12.5523 7.74736 12.7193 7.83665 12.8504 7.96776C12.9815 8.09888 13.0708 8.26592 13.107 8.44778C13.1432 8.62964 13.1246 8.81814 13.0536 8.98944C12.9827 9.16075 12.8625 9.30717 12.7083 9.41018C12.5542 9.51319 12.3729 9.56818 12.1875 9.56818C11.9389 9.56818 11.7004 9.4694 11.5246 9.29359C11.3488 9.11777 11.25 8.87932 11.25 8.63068Z" fill="#AEAEB2"/>
</g>
</svg>
