<svg width="20" height="21" viewBox="0 0 20 21" fill="none" xmlns="http://www.w3.org/2000/svg">
<g id="paper-plane-right">
<path id="Vector" d="M18.1149 9.72441L4.98985 2.23301C4.76847 2.10838 4.51436 2.05416 4.26138 2.07759C4.00841 2.10102 3.76858 2.20098 3.57384 2.36415C3.37911 2.52732 3.23872 2.74595 3.17137 2.99092C3.10403 3.23589 3.11293 3.49556 3.19689 3.73535L5.58985 10.8182L3.19689 17.9018C3.13029 18.0902 3.10987 18.292 3.13735 18.49C3.16483 18.688 3.2394 18.8765 3.35481 19.0398C3.47022 19.203 3.62309 19.3362 3.80061 19.4281C3.97812 19.5201 4.1751 19.5681 4.37501 19.5682C4.5922 19.5677 4.80559 19.5112 4.99454 19.4041L18.1133 11.9002C18.3068 11.7918 18.468 11.6339 18.5803 11.4426C18.6926 11.2514 18.752 11.0337 18.7524 10.8119C18.7528 10.5901 18.6942 10.3722 18.5825 10.1805C18.4709 9.98888 18.3103 9.83037 18.1172 9.72129L18.1149 9.72441ZM4.37501 18.3182C4.37535 18.315 4.37535 18.3119 4.37501 18.3088L6.69845 11.4432H11.25C11.4158 11.4432 11.5747 11.3773 11.692 11.2601C11.8092 11.1429 11.875 10.9839 11.875 10.8182C11.875 10.6524 11.8092 10.4934 11.692 10.3762C11.5747 10.259 11.4158 10.1932 11.25 10.1932H6.69845L4.3797 3.33066C4.37893 3.32624 4.37734 3.322 4.37501 3.31816L17.5 10.8049L4.37501 18.3182Z" fill="#AEAEB2"/>
</g>
</svg>
