<svg width="20" height="21" viewBox="0 0 20 21" fill="none" xmlns="http://www.w3.org/2000/svg">
<g id="smiley">
<path id="Vector" d="M10 2.69318C8.39303 2.69318 6.82214 3.1697 5.486 4.06249C4.14985 4.95527 3.10844 6.22422 2.49348 7.70887C1.87852 9.19352 1.71762 10.8272 2.03112 12.4033C2.34463 13.9794 3.11846 15.4271 4.25476 16.5634C5.39106 17.6997 6.8388 18.4736 8.4149 18.7871C9.99099 19.1006 11.6247 18.9397 13.1093 18.3247C14.594 17.7097 15.8629 16.6683 16.7557 15.3322C17.6485 13.996 18.125 12.4251 18.125 10.8182C18.1227 8.66399 17.266 6.59869 15.7427 5.07545C14.2195 3.55221 12.1542 2.69545 10 2.69318ZM10 17.6932C8.64026 17.6932 7.31105 17.29 6.18046 16.5345C5.04987 15.7791 4.16868 14.7054 3.64833 13.4491C3.12798 12.1929 2.99183 10.8105 3.2571 9.47693C3.52238 8.14331 4.17716 6.9183 5.13864 5.95682C6.10013 4.99533 7.32514 4.34055 8.65876 4.07528C9.99238 3.81 11.3747 3.94615 12.631 4.4665C13.8872 4.98686 14.9609 5.86804 15.7164 6.99863C16.4718 8.12922 16.875 9.45843 16.875 10.8182C16.8729 12.6409 16.1479 14.3884 14.8591 15.6773C13.5702 16.9661 11.8227 17.6911 10 17.6932ZM6.25 9.25568C6.25 9.07026 6.30499 8.889 6.408 8.73483C6.51101 8.58066 6.65743 8.4605 6.82874 8.38954C7.00004 8.31858 7.18854 8.30002 7.3704 8.33619C7.55226 8.37236 7.7193 8.46165 7.85042 8.59276C7.98153 8.72388 8.07082 8.89092 8.10699 9.07278C8.14316 9.25464 8.1246 9.44314 8.05364 9.61444C7.98268 9.78575 7.86252 9.93217 7.70835 10.0352C7.55418 10.1382 7.37292 10.1932 7.1875 10.1932C6.93886 10.1932 6.70041 10.0944 6.52459 9.91859C6.34878 9.74277 6.25 9.50432 6.25 9.25568ZM13.75 9.25568C13.75 9.4411 13.695 9.62235 13.592 9.77652C13.489 9.93069 13.3426 10.0509 13.1713 10.1218C13 10.1928 12.8115 10.2113 12.6296 10.1752C12.4477 10.139 12.2807 10.0497 12.1496 9.91859C12.0185 9.78748 11.9292 9.62043 11.893 9.43857C11.8568 9.25672 11.8754 9.06822 11.9464 8.89691C12.0173 8.72561 12.1375 8.57919 12.2917 8.47617C12.4458 8.37316 12.6271 8.31818 12.8125 8.31818C13.0611 8.31818 13.2996 8.41695 13.4754 8.59276C13.6512 8.76858 13.75 9.00704 13.75 9.25568ZM13.6664 13.0057C12.8625 14.3955 11.5258 15.1932 10 15.1932C8.47422 15.1932 7.13829 14.3963 6.33438 13.0057C6.28916 12.9345 6.25879 12.855 6.24511 12.7718C6.23143 12.6886 6.23472 12.6036 6.25477 12.5217C6.27483 12.4398 6.31123 12.3628 6.36181 12.2954C6.41238 12.228 6.47607 12.1715 6.54905 12.1293C6.62203 12.0871 6.70278 12.0601 6.78646 12.0499C6.87014 12.0398 6.95501 12.0466 7.03596 12.0701C7.11692 12.0936 7.19229 12.1332 7.25753 12.1866C7.32278 12.24 7.37656 12.306 7.41563 12.3807C7.99922 13.3893 8.91641 13.9432 10 13.9432C11.0836 13.9432 12.0008 13.3885 12.5836 12.3807C12.6665 12.2371 12.803 12.1323 12.9631 12.0894C13.1233 12.0464 13.2939 12.0689 13.4375 12.1518C13.5811 12.2347 13.6859 12.3712 13.7288 12.5313C13.7717 12.6915 13.7493 12.8621 13.6664 13.0057Z" fill="#AEAEB2"/>
</g>
</svg>
