<svg width="21" height="21" viewBox="0 0 21 21" fill="none" xmlns="http://www.w3.org/2000/svg">
<g id="upload-simple">
<path id="Vector" d="M18 12.0681V17.0681C18 17.2339 17.9342 17.3928 17.8169 17.5101C17.6997 17.6273 17.5408 17.6931 17.375 17.6931H3.625C3.45924 17.6931 3.30027 17.6273 3.18306 17.5101C3.06585 17.3928 3 17.2339 3 17.0681V12.0681C3 11.9024 3.06585 11.7434 3.18306 11.6262C3.30027 11.509 3.45924 11.4431 3.625 11.4431C3.79076 11.4431 3.94973 11.509 4.06694 11.6262C4.18415 11.7434 4.25 11.9024 4.25 12.0681V16.4431H16.75V12.0681C16.75 11.9024 16.8158 11.7434 16.9331 11.6262C17.0503 11.509 17.2092 11.4431 17.375 11.4431C17.5408 11.4431 17.6997 11.509 17.8169 11.6262C17.9342 11.7434 18 11.9024 18 12.0681ZM7.81719 6.88531L9.875 4.82671V12.0681C9.875 12.2339 9.94085 12.3929 10.0581 12.5101C10.1753 12.6273 10.3342 12.6931 10.5 12.6931C10.6658 12.6931 10.8247 12.6273 10.9419 12.5101C11.0592 12.3929 11.125 12.2339 11.125 12.0681V4.82671L13.1828 6.88531C13.3001 7.00258 13.4591 7.06847 13.625 7.06847C13.7909 7.06847 13.9499 7.00258 14.0672 6.88531C14.1845 6.76803 14.2503 6.60897 14.2503 6.44312C14.2503 6.27727 14.1845 6.11821 14.0672 6.00093L10.9422 2.87593C10.8841 2.81782 10.8152 2.77172 10.7393 2.74027C10.6635 2.70882 10.5821 2.69263 10.5 2.69263C10.4179 2.69263 10.3365 2.70882 10.2607 2.74027C10.1848 2.77172 10.1159 2.81782 10.0578 2.87593L6.93281 6.00093C6.81554 6.11821 6.74965 6.27727 6.74965 6.44312C6.74965 6.60897 6.81554 6.76803 6.93281 6.88531C7.05009 7.00258 7.20915 7.06847 7.375 7.06847C7.54085 7.06847 7.69991 7.00258 7.81719 6.88531Z" fill="#AEAEB2"/>
</g>
</svg>
