<svg width="72" height="73" viewBox="0 0 72 73" fill="none" xmlns="http://www.w3.org/2000/svg">
<path id="Vector" fill-rule="evenodd" clip-rule="evenodd" d="M4.1587 4.97688C4.92632 4.53963 6.01458 4.21899 6.85992 4.1121C8.16194 3.9372 9.49312 4.12182 10.5522 4.96716L10.7368 5.11291L10.9992 4.99631L11.2615 4.87971V4.64652C11.3296 3.53882 12.2526 2.66433 13.3603 2.66433H58.63C59.7377 2.66433 60.6607 3.53882 60.719 4.64652V4.87971L60.9911 4.99631L61.2534 5.11291L61.4381 4.96716C62.4874 4.12182 63.8186 3.9372 65.1304 4.1121C65.9854 4.21899 67.0737 4.53963 67.8316 4.97688C68.2688 5.74449 68.5895 6.83275 68.6964 7.6781C68.8713 8.98012 68.6866 10.3113 67.8413 11.3704L67.6955 11.555L67.8121 11.8174L67.9287 12.0797H68.1619C69.2696 12.1477 70.1441 13.0708 70.1441 14.1785V59.4481C70.1441 60.5558 69.2696 61.4789 68.1619 61.5372H67.9287L67.8121 61.8093L67.6955 62.0716L67.8413 62.2562C68.6866 63.3056 68.8713 64.6368 68.6964 65.9485C68.5895 66.8036 68.2688 67.8919 67.8316 68.6498C67.064 69.087 65.9757 69.4076 65.1304 69.5145C63.8283 69.6894 62.4972 69.5048 61.4381 68.6595L61.2534 68.5137L60.9911 68.6303L60.7287 68.7469V68.9801C60.6607 70.0878 59.7377 70.9623 58.63 70.9623H13.37C12.2623 70.9623 11.3393 70.0878 11.281 68.9801V68.7469L11.0089 68.6303L10.7466 68.5137L10.5619 68.6595C9.51255 69.5048 8.18138 69.6894 6.86964 69.5145C6.01458 69.4076 4.92632 69.087 4.16842 68.6498C3.73117 67.8821 3.41053 66.7939 3.30364 65.9485C3.12875 64.6465 3.31336 63.3153 4.1587 62.2562L4.30445 62.0716L4.18785 61.8093L4.07126 61.5469H3.83806C2.73036 61.4789 1.85587 60.5558 1.85587 59.4481V14.1882C1.85587 13.0805 2.73036 12.1574 3.83806 12.0991H4.07126L4.18785 11.8271L4.30445 11.5647L4.1587 11.3801C3.31336 10.3307 3.12875 8.99955 3.30364 7.68781C3.42024 6.83275 3.73117 5.74449 4.16842 4.9866L4.1587 4.97688ZM0 9.52425V36.8182V64.1121C0 66.5801 0.563563 68.8344 1.8753 70.9429C3.97409 72.2449 6.23806 72.8182 8.70607 72.8182H35.9806H63.2551C65.7231 72.8182 67.9773 72.2546 70.0858 70.9429L69.5514 70.4085C69.5514 70.4085 69.5709 70.3987 69.5806 70.389L70.1344 70.9429C71.4364 68.8441 72.0097 66.5801 72.0097 64.1121V9.52425C72.0097 7.05623 71.4462 4.80198 70.1344 2.69348L69.5806 3.24733C69.5806 3.24733 69.5611 3.23761 69.5514 3.22789L70.0858 2.69348C67.987 1.39146 65.7231 0.818176 63.2551 0.818176H8.70607C6.23806 0.818176 3.97409 1.38174 1.8753 2.69348C0.563563 4.79227 0 7.05623 0 9.52425Z" fill="#999999"/>
</svg>
